<?xml version="1.0" encoding="UTF-8" standalone="no"?>
<svg
   width="940.33142"
   height="743.15002"
   viewBox="0 0 940.33142 743.15002"
   version="1.1"
   id="svg201"
   xmlns:xlink="http://www.w3.org/1999/xlink"
   xmlns="http://www.w3.org/2000/svg"
   xmlns:svg="http://www.w3.org/2000/svg"
   xmlns:rdf="http://www.w3.org/1999/02/22-rdf-syntax-ns#"
   xmlns:cc="http://creativecommons.org/ns#"
   xmlns:dc="http://purl.org/dc/elements/1.1/">
  <title
     id="title201">TidalPy</title>
  <path
     fill="#8ee2f2"
     d="m 315.20863,77.527665 c 8.524,-7.012 14.113,-12.575 23.381,-19.104 53.915,-38.5159 119.895,-56.3323003 185.87,-50.1891003 61.918,6.0764003 131.695,38.8159003 170.184,88.1601003 80.328,102.984005 71.405,264.670005 -30.897,348.164005 l -1.655,1.342 c -1.877,-0.714 -3.269,-1 -4.545,-2.51 0.303,-1.752 0.411,-1.155 0.02,-2.748 l -0.727,-0.081 -0.228,1.256 c -1.785,-0.313 -1.656,-0.309 -3.085,-1.452 l 0.187,-0.464 c 1.068,-0.456 1.188,-0.555 2.148,-1.224 l 0.093,-1.152 c -1.231,-1.779 -0.415,-1.159 -2.645,-1.77 -4.755,-5.729 -9.418,-9.231 -14.89,-14.17 l -2.052,-1.901 c 1.822,3.396 8.393,14.836 5.872,18.336 -1.788,-0.136 -2.917,-0.112 -4.717,-0.057 l -0.342,1.095 c 1.333,3.26 2.76,4.712 4.111,7.494 1.294,1.637 2.345,2.732 3.084,4.696 1.206,2.485 1.496,2.971 3.991,4.385 -0.655,1.415 -2.98853,2.26418 -4.39653,3.10018 4.83851,16.55548 6.76315,36.19479 8.10822,55.35203 0.48818,15.31096 -0.88119,40.16916 -3.78718,60.2247 -0.94076,5.4692 -6.03811,22.68932 -9.15256,32.08562 -11.29803,34.08621 -53.69879,100.2599 -123.84042,122.41976 -41.76301,13.1942 -187.22644,49.35461 -284.23499,-87.20073 -47.60807,-86.27633 -35.2786,-179.80195 42.75746,-261.72856 -1.654,-2.379 -3.635,-6.014 -4.859,-8.624 -0.979,-1.573 -1.293,-2.276 -2.039,-3.989 -1.868,-3.129 -4.354,-7.838 -5.541,-11.229 -0.019,-0.029 -0.038,-0.059 -0.057,-0.089 -9.732,-20.38 -16.362,-48.923 -19.746,-71.067 -2.768,-18.113 -2.463,-46.698 -1.157,-64.725 0.998,-13.775 7.13,-36.139 11.227,-49.127 -3.281,0.015 -5.321,-0.028 -8.587,-0.35 -9.5,-0.632 -17.482,-1.725 -26.332,-5.416 -33.016,-13.448 -55.119,-53.638 -40.073,-87.852005 6.097,-13.865 15.651,-25.7379 28.185,-34.2941 38.121,-26.022 93.256,-8.0275 110.367,34.4031 z"
     id="path2" />
  <path
     fill="#c48857"
     d="m 306.26963,334.00567 c 2.636,0.536 4.022,0.782 6.58,1.775 l 0.781,0.163 c 2.09,0.709 4.334,1.422 6.368,2.243 -2.415,2.433 -3.206,0.625 -6.717,3.575 l 2.513,0.683 c -1.865,1.459 -2.657,2.188 -4.298,3.898 l -0.013,0.52 c -4.651,5.831 -7.18,2.86 -11.746,0.709 -1.642,-0.456 -2.675,-0.677 -4.354,-0.974 -0.519,-1.59 -0.57,-0.857 -0.075,-2.271 2.071,-1.314 6.648,-2.933 7.026,-5.049 l -2.549,-1.298 c 1.583,-0.195 1.651,-0.211 3.23,-0.039 l -0.039,0.287 c 1.987,-0.239 4.052,-0.314 5.352,-1.864 l -0.332,-0.896 -2.264,-0.927 z"
     id="path3" />
  <path
     fill="#c0a179"
     d="m 299.73763,347.57167 c 1.819,-2.006 8.703,-5.244 11.396,-6.345 l 2.148,0.535 2.513,0.683 c -1.865,1.459 -2.657,2.188 -4.298,3.898 l -0.013,0.52 c -4.651,5.831 -7.18,2.86 -11.746,0.709 z"
     id="path4" />
  <path
     fill="#e48f36"
     d="m 308.94963,340.57467 2.184,0.652 c -2.693,1.101 -9.577,4.339 -11.396,6.345 -1.642,-0.456 -2.675,-0.677 -4.354,-0.974 -0.519,-1.59 -0.57,-0.857 -0.075,-2.271 3.051,-0.613 8.722,-1.757 11.612,-2.921 0.841,-0.339 0.07,-0.316 2.029,-0.831 z"
     id="path5" />
  <path
     fill="#d75e08"
     d="m 315.20863,77.527665 c 8.524,-7.012 14.113,-12.575 23.381,-19.104 53.915,-38.5159 119.895,-56.3323003 185.87,-50.1891003 61.918,6.0764003 131.695,38.8159003 170.184,88.1601003 80.328,102.984005 71.405,264.670005 -30.897,348.164005 l -1.655,1.342 c -1.877,-0.714 -3.269,-1 -4.545,-2.51 0.303,-1.752 0.411,-1.155 0.02,-2.748 l -0.727,-0.081 -0.228,1.256 c -1.785,-0.313 -1.656,-0.309 -3.085,-1.452 l 0.187,-0.464 c 1.068,-0.456 1.188,-0.555 2.148,-1.224 l 0.093,-1.152 c -1.231,-1.779 -0.415,-1.159 -2.645,-1.77 -4.755,-5.729 -9.418,-9.231 -14.89,-14.17 l -2.052,-1.901 c 1.822,3.396 8.393,14.836 5.872,18.336 -1.788,-0.136 -2.917,-0.112 -4.717,-0.057 -2.776,-8.262 -9.383,-15.39 -13.362,-23.029 -0.471,-0.904 -0.063,-0.418 -1.349,-1 -1.077,0.031 -3.058,-0.115 -4.204,-0.166 -0.143,-1.996 -0.36,-3.987 -0.652,-5.967 -1.5,0.076 -2.616,-0.041 -4.096,-0.158 -0.593,-2.038 -8.863,-15.38 -10.377,-16.653 -8.318,-6.93 -16.166,-15.061 -25.105,-21.174 -1.513,-1.035 -11.468,-8.066 -12.162,-8.247 l 0.187,-0.53 c -1.954,-3.753 -8.881,-2.363 -10.938,-6.482 -1.068,-2.137 -1.782,-2.126 -3.76,-2.054 -2.833,-0.371 -3.629,-2.851 -6.007,-3.864 l -2.595,0.383 -2.434,-0.694 c -1.453,0.578 -1.645,0.534 -2.906,1.459 -1.642,-0.524 -4.585,-2.005 -6.295,-2.815 -11.316,-5.362 -22.977,-9.374 -34.901,-13.235 -9.985,-2.661 -20.077,-4.904 -30.249,-6.724 -0.696,-0.349 -0.432,-0.161 -0.961,-0.613 -16.063,-13.706 -76.842,-5.388 -100.303,-11.571 h -4.173 c 1.974,0.779 4.319,0.544 5.467,1.425 -6.433,2.412 -8.635,2.876 -14.789,6.36 -1.229,-0.892 -3.409,-2.256 -4.902,-1.932 -5.357,1.164 -10.769,6.093 -15.857,7.421 -8.161,5.037 -11.923,2.644 -17.169,7.84 l -0.781,-0.163 c -2.558,-0.993 -3.944,-1.239 -6.58,-1.775 l -0.537,0.535 2.264,0.927 0.332,0.896 c -1.3,1.55 -3.365,1.625 -5.352,1.864 l 0.039,-0.287 c -1.579,-0.172 -1.647,-0.156 -3.23,0.039 l 2.549,1.298 c -0.378,2.116 -4.955,3.735 -7.026,5.049 -0.495,1.414 -0.444,0.681 0.075,2.271 -0.571,2.295 -8.952,5.455 -11.335,5.058 -0.681,-0.716 -0.692,-0.564 -1.072,-1.413 l -0.34,-0.801 c -1.597,0.345 -7.808,5.644 -9.064,7.141 0.372,3.091 1.613,2.265 1.147,4.923 -1.892,2.08 -5.299,4.455 -7.797,5.768 -1.868,-3.129 -4.354,-7.838 -5.541,-11.229 -0.019,-0.029 -0.038,-0.059 -0.057,-0.089 -9.732,-20.38 -16.362,-48.923 -19.746,-71.067 -2.768,-18.113 -2.463,-46.698 -1.157,-64.725 0.998,-13.775 7.13,-36.139 11.227,-49.127 -3.281,0.015 -5.321,-0.028 -8.587,-0.35 -9.5,-0.632 -17.482,-1.725 -26.332,-5.416 -33.016,-13.448 -55.119,-53.638 -40.073,-87.852005 6.097,-13.865 15.651,-25.7379 28.185,-34.2941 38.121,-26.022 93.256,-8.0275 110.367,34.4031 z"
     id="path6" />
  <path
     fill="#b63a1d"
     d="m 245.04869,167.87166 c -9.5,-0.632 -17.97876,-1.39382 -26.82876,-5.08482 -33.016,-13.448 -51.64164,-49.66387 -36.59564,-83.877875 6.097,-13.865 15.13272,-24.652246 27.66672,-33.208446 38.121,-26.022 88.80662,-10.603454 105.91762,31.827146 -1.519,1.71 -2.457,2.561 -4.189,4.067 l -2.699,3.074 c -15.144,15.531005 -28.165,31.314005 -38.977,50.098005 -1.066,1.853 -3.003,5.182 -4.289,6.791 -0.957,1.252 -1.11,1.382 -1.794,2.86 -2.188,5.95 -5.6,11.984 -8.027,18.098 l -0.683,1.731 c -0.886,2.143 -1.34663,2.70091 -2.29063,4.81891 z"
     id="path7" />
  <path
     fill="#d75e08"
     d="m 181.88363,119.08667 c -0.203,-0.423 -0.227,-0.447 -0.398,-0.948 -12.302,-36.168005 17.495,-74.464405 53.393,-80.386205 10.22,-1.686 23.381,-1.8711 32.7,2.4941 0,0 8.75505,4.885786 10.29305,5.324286 -0.846,1.0108 -20.39405,3.963414 -22.40305,5.909614 -0.507,0.4913 -4.693,3.0974 -5.41,3.2699 -1.942,2.0313 -2.982,3.3883 -5.454,4.7303 l 0.177,0.596 c -3.666,3.821 -6.857,5.991 -9.709,10.829 -9.474,16.074 -5.485,20.171 -23.832,28.519 0.399,10.069005 -4.775,13.404005 -14.414,10.551005 -2.936,2.019 -12.922,6.861 -13.876,8.012 l 0.127,0.812 z"
     id="path8" />
  <path
     fill="#9a2f0d"
     d="m 196.82663,109.97567 c -5.698,-5.606 -7.031,-14.305005 1.501,-17.483005 2.458,-0.928 5.187,-0.819 7.562,0.304 3.068,1.478 4.191,3.618 5.351,6.628 0.399,10.069005 -4.775,13.404005 -14.414,10.551005 z"
     id="path9" />
  <path
     fill="#d75e08"
     d="m 200.78963,95.109665 c 1.631,0.049 2.67,0.092 4.192,0.76 1.696,0.748 2.998,2.176 3.587,3.934 1.341,4.028005 -1.714,6.676005 -5.157,7.802005 -9.719,0.093 -10.95,-9.026005 -2.622,-12.496005 z"
     id="path10" />
  <path
     fill="#e48f36"
     d="m 200.62263,98.237665 c 1.685,-0.807 3.708,-0.146 4.59,1.502 0.883,1.648005 0.312,3.698005 -1.294,4.654005 -1.105,0.657 -2.482,0.654 -3.585,-0.008 -1.102,-0.662 -1.752,-1.875 -1.692,-3.16 0.06,-1.284005 0.821,-2.432005 1.981,-2.988005 z"
     id="path11" />
  <path
     fill="#9a2f0d"
     d="m 222.33229,57.369435 c 13.16821,-2.49795 26.95361,2.42944 30.7919,11.00583 3.83829,8.57492 -3.72341,17.55475 -16.88937,20.05754 -13.17272,2.50426 -26.96713,-2.4221 -30.80767,-11.00289 -3.84054,-8.57933 3.73017,-17.56209 16.90514,-20.06048 z"
     id="path15"
     style="stroke-width:1.81784" />
  <path
     fill="#9a2f0d"
     d="m 238.40254,119.64185 c -0.0319,-1.43863 7.13007,-5.1166 8.61702,-3.30413 0.94701,1.15413 -0.5434,2.93477 -1.74543,5.29473 -0.68535,1.34556 -0.0476,3.88527 -1.89971,4.07733 -5.10312,0.52919 -11.02664,2.30315 -12.51446,0.48975 -1.48783,-1.8131 5.17081,-2.88351 7.54258,-6.55768 z"
     id="path15-2"
     style="stroke-width:0.520138" />
  <path
     fill="#9a2f0d"
     d="m 234.06068,125.14946 c 3.83867,-3.40107 8.78588,-5.66603 11.05035,-5.0592 2.2643,0.60657 -1.16368,4.2696 -5.00104,7.67098 -3.83931,3.40318 -6.63658,5.25638 -8.9023,4.6493 -2.26555,-0.60683 -0.98775,-3.85842 2.85299,-7.26108 z"
     id="path15-2-5"
     style="stroke-width:0.520138" />
  <path
     fill="#9a2f0d"
     d="m 232.75731,78.287835 c 6.41827,-0.69875 12.96445,0.74769 17.03513,3.76409 4.07069,3.01639 5.0037,7.11317 2.42849,10.65918 -2.57521,3.54713 -8.24105,5.96714 -14.74209,6.2976 -9.40733,0.47844 -17.79133,-3.49595 -19.05167,-9.03027 -1.26032,-5.53431 5.04696,-10.67921 14.33014,-11.6906 z"
     id="path24"
     style="stroke-width:1.44672" />
  <path
     fill="#d75e08"
     d="m 222.93839,60.350965 c 10.89521,-1.86859 22.25207,1.91197 25.41684,8.46248 3.16476,6.5489 -3.05003,13.40789 -13.91055,15.35039 -10.94859,1.95696 -22.44954,-1.82199 -25.63832,-8.42392 -3.18878,-6.60192 3.15142,-13.5059 14.13203,-15.38895 z"
     id="path16"
     style="stroke-width:2.0706" />
  <path
     fill="#e48f36"
     d="m 223.37745,63.389925 c 3.97751,-0.587908 11.85039,-0.873211 14.05878,0.192612 17.34497,8.371121 1.62633,12.46978 -4.19346,16.670688 -9.14778,1.43918 -18.84029,-1.20699 -21.57899,-5.89102 -2.74245,-4.68596 2.52081,-9.61178 11.71367,-10.97228 z"
     id="path17"
     style="stroke-width:2.68494" />
  <path
     fill="#9a2f0d"
     d="m 244.93505,167.87654 c -9.5,-0.632 -15.84276,-1.02247 -24.69276,-4.71347 -33.016,-13.448 -52.83606,-51.19922 -37.79006,-85.413225 6.097,-13.865 12.836,-22.094953 25.37,-30.651153 38.121,-26.022 84.64539,-9.186621 103.90904,30.097793 -1.519,1.71 1.02036,2.89218 -0.71164,4.39818 -0.192,-0.927 -0.41,-1.848 -0.654,-2.762 -2.912,-10.84 -13.352,-22.658 -22.697,-28.7377 -2.546,-1.6566 -4.983,-5.3247 -8.375,-4.3981 -2.366,-0.8357 -8.597,-4.1104 -11.715,-5.4503 -9.319,-4.3652 -22.48,-4.1801 -32.7,-2.4941 -35.898,5.9218 -65.695,44.2182 -53.393,80.386205 0.171,0.501 0.195,0.525 0.398,0.948 1.041,3.492 3.022,7.8 4.763,11.009 0.992,2.525 2.216,4.32 3.619,6.603 14.129,22.976 38.93,27.538 64.285,27.548 -0.886,2.143 -1.09825,2.45253 -2.04225,4.57053 z"
     id="path18" />
  <path
     fill="#9a2f0d"
     d="m 246.54863,138.97867 c 18.8859,-12.96505 32.82358,-27.65503 42.351,-50.149005 1.572,-4.324 2.472,-9.877 2.801,-14.481 0.625,-5.098 -2.083,-12.187 -1.112,-15.478 8.082,-1.699 16.004,19.938 17.732,25.798 -15.144,15.531005 -28.165,31.314005 -38.977,50.098005 -1.066,1.853 -3.003,5.182 -4.289,6.791 -0.957,1.252 -1.11,1.382 -1.794,2.86 -2.188,5.95 -5.6,11.984 -8.027,18.098 -7.387,0.574 -14.816,0.215 -22.114,-1.067 -4.201,-0.773 -20.404,-4.136 -18.406,-10.484 11.533,-3.824 20.658,-7.895 31.835,-11.986 z"
     id="path19" />
  <path
     fill="#d75e08"
     d="m 267.57863,40.246565 c 3.118,1.3399 9.349,4.6146 11.715,5.4503 0.17,0.4862 0.083,0.1492 0.054,1.0424 -2.303,-0.3407 -9.433,-3.5891 -12.272,-4.7182 z"
     id="path22" />
  <path
     fill="#cc4f28"
     d="m 181.88363,119.08667 1.194,-0.287 c 1.534,3.665 2.851,7.328 4.215,11.056 l -0.646,0.24 c -1.741,-3.209 -3.722,-7.517 -4.763,-11.009 z"
     id="path23" />
  <path
     fill="#d75e08"
     d="m 228.28429,72.882845 c 20.41023,-0.86126 28.12529,11.025 11.01779,23.10776 -16.46872,1.99219 -25.26497,-11.87162 -11.01779,-23.10776 z"
     id="path25"
     style="stroke-width:2.22389" />
  <path
     fill="#d75e08"
     d="m 240.45525,123.81386 c 0.0904,-3.4191 4.95552,-1.24282 1.13984,1.43275 -0.52686,0.36944 -2.58499,0.84247 -3.27886,1.49881 -1.95979,1.85381 -0.0718,2.28197 -0.66984,2.62381 -4.62913,0.58468 -5.14595,1.12708 2.80886,-5.55537 z"
     id="path25-1"
     style="stroke-width:2.22389" />
  <path
     fill="#e48f36"
     d="m 227.68525,71.587705 c 3.79687,-2.05522 13.40399,-10.182588 18.30226,-1.108957 2.21495,5.356226 -4.64694,1.959507 -4.78143,7.336987 -0.0333,1.32986 -0.087,2.16387 -0.23687,4.49921 -0.25239,4.11389 1.68406,7.41521 -2.28474,9.1606 -5.78675,2.55096 -12.91237,0.23406 -13.17122,-5.68395 -5.6413,-3.11134 -3.36602,-11.20539 2.172,-14.20389 z"
     id="path26"
     style="stroke-width:3.5486" />
  <path
     fill="#e48f36"
     d="m 237.04356,72.762085 c 1.22044,3.69535 2.5248,10.97227 1.15923,14.72912 -1.36799,3.75538 -4.54348,7.03343 -8.71187,2.11798 -1.83433,-1.29503 -0.27274,-5.98935 -2.6848,-7.51914 -6.3776,-4.04486 -4.66621,-10.12356 -3.75383,-12.63091 1.38251,-3.80364 9.79468,-1.73729 13.99127,3.30295 z"
     id="path17-9"
     style="fill:#e2b923;fill-opacity:1;stroke-width:1.87922" />
  <path
     fill="#e48f36"
     d="m 223.63149,66.672705 c 7.66598,-0.9195 12.25712,-2.524301 14.64879,0.180999 1.02034,1.156175 5.53908,2.728976 4.69869,4.272579 -1.24818,2.29265 -6.27178,4.850077 -10.63651,5.403072 -7.71482,0.97718 -15.97762,-0.45866 -18.39594,-3.1965 -2.42152,-2.73895 1.93029,-5.72897 9.68497,-6.66015 z"
     id="path17-9-8"
     style="fill:#e2b923;fill-opacity:1;stroke-width:1.90219" />
  <path
     fill="#e17d28"
     d="m 571.38763,330.96767 c 2.79,-1.047 11.204,-2.238 15.218,-3.516 17.892,-5.692 29.248,-10.374 48.393,-9.811 28.22,0.83 54.162,18.933 81.921,9.071 6.123,-2.175 10.178,-4.012 14.849,-8.611 -1.806,6.949 -3.535,13.92 -5.696,20.766 -5.126,1.183 -10.128,2.434 -15.443,2.451 -12.376,0.039 -24.464,-6.549 -36.475,-7.895 6.683,5.696 25.27,11.88 34.144,12.522 3.477,0.252 12.536,-0.547 14.603,1.871 -0.258,1.22 -0.611,1.652 -1.753,2.293 -19.19,10.78 -40.923,-4.651 -57.626,-11.95 -21.46,-9.379 -47.587,-2.746 -67.044,8.009 -1.353,0.758 -6.433,4.33 -6.972,4.534 -1.656,0.165 -6.954,2.364 -8.86,3.073 -5.248,-6.715 -4.836,-2.672 -8.653,-4.803 1.051,-2.14 4.017,-1.734 5.891,-3.927 -2.522,1.046 -4.492,2.195 -7.136,1.774 -1.472,-0.952 -1.363,-0.888 -2.147,-2.472 -1.316,0.69 -3.452,1.079 -4.973,1.432 -1.362,0.317 -2.702,0.591 -4.023,1.048 l -4.371,0.728 -7.01,1.035 -2.527,0.05 -2.595,0.383 -2.434,-0.694 c -1.453,0.578 -1.645,0.534 -2.906,1.459 -1.642,-0.524 -4.585,-2.005 -6.295,-2.815 -11.316,-5.362 -22.977,-9.374 -34.901,-13.235 l -0.889,-1.228 c 1.355,-0.391 1.744,-0.626 2.899,-1.441 5.703,-1.453 27.767,-2.568 33.901,-2.19 5.024,0.31 11.386,1.519 16.838,1.366 8.87,1.357 13.024,1.483 22.072,0.723 z"
     id="path29" />
  <defs
     id="defs30">
    <linearGradient
       id="gradient_0"
       gradientUnits="userSpaceOnUse"
       x1="578.68378"
       y1="369.34015"
       x2="572.29419"
       y2="384.85684"
       gradientTransform="translate(-56.270374,-43.916335)">
      <stop
         offset="0"
         stop-color="#CCA068"
         id="stop29" />
      <stop
         offset="1"
         stop-color="#ACBEB3"
         id="stop30" />
    </linearGradient>
    <linearGradient
       xlink:href="#gradient_7"
       id="linearGradient2"
       gradientUnits="userSpaceOnUse"
       gradientTransform="translate(-59.067935,-17.439263)"
       x1="786.15021"
       y1="720.31354"
       x2="784.02002"
       y2="725.18115" />
    <linearGradient
       xlink:href="#gradient_7"
       id="linearGradient3"
       gradientUnits="userSpaceOnUse"
       gradientTransform="translate(-52.289354,-37.35936)"
       x1="785.81903"
       y1="725.94354"
       x2="788.15973"
       y2="736.93793" />
    <filter
       style="color-interpolation-filters:sRGB"
       id="filter91"
       x="-0.010918371"
       y="-0.038084454"
       width="1.0252521"
       height="1.088082">
      <feColorMatrix
         values="0 0 0 0 0 0 0 0 0 0 0 0 0 0 0 0.21 0.72 0.07 0 0 "
         result="result1"
         id="feColorMatrix86" />
      <feColorMatrix
         values="1 0 0 0 0 0 1 0 0 0 0 0 1 0 0 0 0 0 2 0 "
         result="result9"
         id="feColorMatrix87" />
      <feComposite
         in2="result9"
         in="SourceGraphic"
         operator="in"
         result="result4"
         id="feComposite87" />
      <feFlood
         result="result2"
         flood-color="rgb(0,0,0)"
         id="feFlood87" />
      <feComposite
         in2="result9"
         operator="in"
         result="result10"
         id="feComposite88" />
      <feComposite
         in2="result4"
         operator="atop"
         id="feComposite89" />
      <feGaussianBlur
         stdDeviation="3"
         result="result8"
         id="feGaussianBlur89" />
      <feOffset
         dx="3"
         dy="3"
         result="result3"
         in="result8"
         id="feOffset89" />
      <feFlood
         flood-opacity="1"
         flood-color="rgb(219,173,62)"
         result="result5"
         id="feFlood89" />
      <feMerge
         result="result6"
         id="feMerge91">
        <feMergeNode
           in="result5"
           id="feMergeNode89" />
        <feMergeNode
           in="result3"
           id="feMergeNode90" />
        <feMergeNode
           in="result4"
           id="feMergeNode91" />
      </feMerge>
      <feComposite
         in2="SourceGraphic"
         operator="in"
         result="result7"
         id="feComposite91" />
    </filter>
  </defs>
  <path
     fill="url(#gradient_0)"
     d="m 498.57663,331.06867 c 5.703,-1.453 27.767,-2.568 33.901,-2.19 5.024,0.31 11.386,1.519 16.838,1.366 8.87,1.357 13.024,1.483 22.072,0.723 -7.913,4.648 -33.941,-2.609 -37.014,-0.762 2.778,6.445 33.264,4.787 35.826,8.429 l -0.331,0.494 c -2.792,-0.137 -18.978,-1.604 -20.297,-1.342 0.887,0.654 1.675,1.243 2.6,1.845 -5.555,2.349 -12.037,2.56 -14.677,4.004 l 0.623,0.439 c 1.897,1.319 3.317,1.498 4.709,3.289 l -0.072,0.97 0.348,0.689 -2.434,-0.694 c -1.453,0.578 -1.645,0.534 -2.906,1.459 -1.642,-0.524 -4.585,-2.005 -6.295,-2.815 -11.316,-5.362 -22.977,-9.374 -34.901,-13.235 l -0.889,-1.228 c 1.355,-0.391 1.744,-0.626 2.899,-1.441 z"
     id="path30"
     style="fill:url(#gradient_0)" />
  <path
     fill="#b3b8a4"
     d="m 525.88663,339.04167 c 3.653,1.365 8.21,3.485 11.608,4.594 l 0.623,0.439 c 1.897,1.319 3.317,1.498 4.709,3.289 l -0.072,0.97 0.348,0.689 -2.434,-0.694 c -3.391,-5.512 -8.289,-2.879 -14.782,-9.287 z"
     id="path31" />
  <defs
     id="defs32">
    <linearGradient
       id="gradient_1"
       gradientUnits="userSpaceOnUse"
       x1="609.78601"
       y1="386.03751"
       x2="601.75708"
       y2="392.5498"
       gradientTransform="translate(-56.270374,-43.916335)">
      <stop
         offset="0"
         stop-color="#C9A174"
         id="stop31" />
      <stop
         offset="1"
         stop-color="#BFB394"
         id="stop32" />
    </linearGradient>
  </defs>
  <path
     fill="url(#gradient_1)"
     d="m 552.17163,339.63167 0.551,0.098 c 6.412,1.192 5.929,4.096 11.333,5.082 1.289,0.236 9.812,-4.122 11.237,-3.073 l -6.691,2.608 c -1.316,0.69 -3.452,1.079 -4.973,1.432 -1.362,0.317 -2.702,0.591 -4.023,1.048 l -4.371,0.728 -7.01,1.035 -2.527,0.05 -2.595,0.383 -0.348,-0.689 0.072,-0.97 c -1.392,-1.791 -2.812,-1.97 -4.709,-3.289 l -0.623,-0.439 c 2.64,-1.444 9.122,-1.655 14.677,-4.004 z"
     id="path32"
     style="fill:url(#gradient_1)" />
  <defs
     id="defs34">
    <linearGradient
       id="gradient_2"
       gradientUnits="userSpaceOnUse"
       x1="643.06543"
       y1="379.10278"
       x2="628.43457"
       y2="391.39722"
       gradientTransform="translate(-56.270374,-43.916335)">
      <stop
         offset="0"
         stop-color="#CF5D16"
         id="stop33" />
      <stop
         offset="1"
         stop-color="#C6783A"
         id="stop34" />
    </linearGradient>
  </defs>
  <path
     fill="url(#gradient_2)"
     d="m 575.29263,341.73867 c 5.624,-2.001 11.791,-4.498 17.634,-5.341 -1.905,1.149 -14.364,7.887 -15.042,8.647 -2.522,1.046 -4.492,2.195 -7.136,1.774 -1.472,-0.952 -1.363,-0.888 -2.147,-2.472 z"
     id="path34"
     style="fill:url(#gradient_2)" />
  <path
     fill="#c48857"
     d="m 383.28063,300.37867 c 2.699,1.252 15.841,3.094 18.367,0.886 l 0.111,-1.281 c -0.735,-0.813 -0.511,-0.661 -1.412,-1.258 3.393,0.27 2.041,2.058 5.155,1.994 0.033,-0.997 -0.619,-1.269 -1.56,-2.281 8.412,0.074 16.712,-0.155 25.081,0.688 2.953,0.298 6.373,0.216 9.341,0.199 l -3.68,2.039 0.174,0.602 c 3.252,-0.051 7.601,-1.899 10.988,-1.623 1.704,0.139 2.973,2.016 5.474,2.141 -0.524,-0.587 -0.867,-0.922 -1.428,-1.465 1.271,-1.817 2.676,-0.913 4.726,-0.311 7.327,2.152 16.961,-0.456 23.67,3.024 1.667,0.865 7.704,-3.352 12.542,1.939 0.638,2.008 0.318,2.101 1.651,3.292 3.41,0.281 6.575,1.841 9.561,0.951 l 0.684,-0.714 -1.544,-0.25 c 0.461,-0.143 0.922,-0.286 1.382,-0.43 8.777,2.977 18.56,3.514 26.954,7.459 2.963,1.393 5.666,3.39 8.885,4.419 4.783,1.53 5.756,-0.351 8.596,4.358 l 0.607,0.116 c 0.803,0.16 0.485,0.073 1.169,0.316 -3.358,0.131 -3.718,-0.118 -5.755,-1.356 -2.208,-1.342 -15.373,0.165 -19.152,0.314 l -0.457,0.283 c 0.905,4.857 20.202,3.147 25.905,5.815 -5.452,0.153 -11.814,-1.056 -16.838,-1.366 -6.134,-0.378 -28.198,0.737 -33.901,2.19 -1.155,0.815 -1.544,1.05 -2.899,1.441 l 0.889,1.228 c -9.985,-2.661 -20.077,-4.904 -30.249,-6.724 -0.696,-0.349 -0.432,-0.161 -0.961,-0.613 -16.063,-13.706 -76.842,-5.388 -100.303,-11.571 l 0.432,-0.819 c 7.331,-0.542 6.788,2.827 14.096,-1.812 -1.214,-0.681 -1.81,-0.433 -2.939,-1.101 3.399,0.291 3.063,-1.448 6.222,-1.97 l -0.003,-0.551 -1.154,-0.675 c -0.306,0.081 -0.611,0.162 -0.917,0.243 -4.083,3.002 -12.301,1.62 -17.107,1.824 -0.232,0.01 -3.875,0.031 -3.955,0.059 -0.913,0.317 -1.316,1.371 -2.901,1.291 l 0.964,-0.844 -0.158,-0.479 -3.449,-1.113 c 5.869,-1.916 27.117,-0.936 33.176,-5.183 l -0.025,-0.839 c -6.294,-2.774 -23.254,0.258 -31.554,-1.181 4.708,-0.27 24.703,0.226 27.499,-1.301 z"
     id="path35" />
  <defs
     id="defs36">
    <linearGradient
       id="gradient_3"
       gradientUnits="userSpaceOnUse"
       x1="485.62183"
       y1="346.07285"
       x2="493.68604"
       y2="385.97644"
       gradientTransform="translate(-56.270374,-43.916335)">
      <stop
         offset="0"
         stop-color="#C68A5F"
         id="stop35" />
      <stop
         offset="1"
         stop-color="#AAB8A1"
         id="stop36" />
    </linearGradient>
  </defs>
  <path
     fill="url(#gradient_3)"
     d="m 379.58163,312.19867 c 3.872,1.054 19.091,-0.317 24.239,-0.494 17.682,-0.755 35.396,0.209 52.892,2.88 1.923,0.28 5.961,0.383 7.308,0.799 -2.531,1.044 -5.51,1.218 -6.965,1.952 3.093,1.53 6.725,2.63 10.125,3.241 10.959,1.972 20.337,10.03 31.396,10.492 -1.155,0.815 -1.544,1.05 -2.899,1.441 l 0.889,1.228 c -9.985,-2.661 -20.077,-4.904 -30.249,-6.724 -0.696,-0.349 -0.432,-0.161 -0.961,-0.613 -16.063,-13.706 -76.842,-5.388 -100.303,-11.571 l 0.432,-0.819 c 7.331,-0.542 6.788,2.827 14.096,-1.812 z"
     id="path36"
     style="fill:url(#gradient_3)" />
  <defs
     id="defs38">
    <linearGradient
       id="gradient_4"
       gradientUnits="userSpaceOnUse"
       x1="313.37097"
       y1="318.23785"
       x2="404.20291"
       y2="385.41574"
       gradientTransform="translate(-56.270374,-43.916335)">
      <stop
         offset="0"
         stop-color="#EA7311"
         id="stop37" />
      <stop
         offset="1"
         stop-color="#D19152"
         id="stop38" />
    </linearGradient>
  </defs>
  <path
     fill="url(#gradient_4)"
     d="m 250.88163,279.75367 c 5.922,4.668 11.61,9.76 17.419,14.58 2.587,2.145 7.969,6.902 11.556,5.606 l 0.203,-0.851 c -1.312,-3.754 -5.581,-7.499 -8.491,-10.368 9.71,3.089 22.133,4.408 31.713,8.309 9.04,3.682 15.191,9.394 25.477,11.725 7.244,1.642 13.334,2.71 20.806,3.496 4.192,0.441 12.385,0.25 15.921,1.76 l -0.432,0.819 h -4.173 c 1.974,0.779 4.319,0.544 5.467,1.425 -6.433,2.412 -8.635,2.876 -14.789,6.36 -1.229,-0.892 -3.409,-2.256 -4.902,-1.932 -5.357,1.164 -10.769,6.093 -15.857,7.421 -8.161,5.037 -11.923,2.644 -17.169,7.84 l -0.781,-0.163 c -2.558,-0.993 -3.944,-1.239 -6.58,-1.775 l -0.537,0.535 c -4.331,-1.043 -8.28,-2.991 -12.523,-4.47 -11.701,-4.08 -23.189,-7.878 -34.201,-13.657 -3.109,-12.516 -6.177,-23.873 -8.127,-36.66 z"
     id="path38"
     style="fill:url(#gradient_4)" />
  <path
     fill="#e48f36"
     d="m 306.26963,334.00567 c 0.588,-2.736 11.051,-6.045 13.044,-5.321 l -1.067,2.115 c 7.866,0.475 7.027,-2.219 12.553,-2.696 -8.161,5.037 -11.923,2.644 -17.169,7.84 l -0.781,-0.163 c -2.558,-0.993 -3.944,-1.239 -6.58,-1.775 z"
     id="path39" />
  <path
     fill="#bf986f"
     d="m 568.60163,344.34667 c 0.784,1.584 0.675,1.52 2.147,2.472 2.644,0.421 4.614,-0.728 7.136,-1.774 -1.874,2.193 -4.84,1.787 -5.891,3.927 3.817,2.131 3.405,-1.912 8.653,4.803 1.906,-0.709 7.204,-2.908 8.86,-3.073 -1.679,0.785 -2.522,1.363 -3.873,2.665 -0.431,4.18 2.973,4.037 5.433,5.07 4.282,1.796 6.838,9.467 11.662,10.643 0.731,-1.018 0.294,-0.643 1.246,-1.196 2.978,0.941 2.693,4.018 4.671,4.323 0.981,0.15 1.107,0.264 2.14,0.76 l 0.173,0.535 -2.779,-0.731 -0.438,0.275 1.77,2.586 c -0.415,0.608 -0.68,1.076 -0.978,1.763 3.565,5.124 10.103,14.112 16.789,15.121 2.525,0.381 3.391,0.173 6.062,0.926 -3.197,0.616 -8.105,0.007 -9.87,0.901 0.244,2.663 3.585,2.783 4.702,8.612 2.139,1.352 1.734,0.791 3.057,3.106 l 0.909,0.255 1.272,-0.769 c -0.937,-1.522 -3.937,-6.276 -4.346,-7.617 l 0.589,-0.587 c 1.803,0.431 4.653,4.607 6.392,6.338 l -0.288,1.748 c 1.116,0.842 1.223,0.755 2.921,0.625 -2.703,1.35 -9.416,2.128 -11.846,3.883 -0.697,1.703 -0.629,0.82 0.046,2.746 1.743,1.276 7.606,0.301 7.848,0.658 1.186,1.755 1.214,4.22 3.597,6.344 1.822,3.396 8.393,14.836 5.872,18.336 -1.788,-0.136 -2.917,-0.112 -4.717,-0.057 -2.776,-8.262 -9.383,-15.39 -13.362,-23.029 -0.471,-0.904 -0.063,-0.418 -1.349,-1 -1.077,0.031 -3.058,-0.115 -4.204,-0.166 -0.143,-1.996 -0.36,-3.987 -0.652,-5.967 -1.5,0.076 -2.616,-0.041 -4.096,-0.158 -0.593,-2.038 -8.863,-15.38 -10.377,-16.653 -8.318,-6.93 -16.166,-15.061 -25.105,-21.174 -1.513,-1.035 -11.468,-8.066 -12.162,-8.247 l 0.187,-0.53 c -1.954,-3.753 -8.881,-2.363 -10.938,-6.482 -1.068,-2.137 -1.782,-2.126 -3.76,-2.054 -2.833,-0.371 -3.629,-2.851 -6.007,-3.864 l 2.527,-0.05 7.01,-1.035 4.371,-0.728 c 1.321,-0.457 2.661,-0.731 4.023,-1.048 1.521,-0.353 3.657,-0.742 4.973,-1.432 z"
     id="path40" />
  <path
     fill="#c0ac87"
     d="m 563.85063,350.48367 c 3.524,1.955 7.286,3.692 8.609,7.371 -0.366,1.809 0.069,1.062 -1.436,2.264 -6.174,1.166 -9.636,-4.375 -12.239,-8.683 l 0.267,-0.197 z"
     id="path41" />
  <path
     fill="#c0a179"
     d="m 548.22463,348.58967 7.01,-1.035 c 1.207,1.736 1.695,3.369 3.817,3.684 l -0.267,0.197 c -6.346,0.52 -4.843,1.573 -10.56,-2.846 z"
     id="path42" />
  <path
     fill="#c0ac87"
     d="m 617.95563,407.80167 c 1.696,0.007 2.464,-0.176 3.83,0.805 1.071,2.098 0.409,3.336 1.026,5.328 -1.077,0.031 -3.058,-0.115 -4.204,-0.166 -0.143,-1.996 -0.36,-3.987 -0.652,-5.967 z"
     id="path43" />
  <path
     fill="#c48857"
     d="m 559.60563,346.82667 c 1.321,-0.457 2.661,-0.731 4.023,-1.048 1.39,1.262 1.931,1.716 3.482,2.759 -0.777,1.014 -1.95,1.115 -3.417,1.633 l -1.245,-0.021 c -1.94,-1.121 -1.503,-1.13 -2.843,-3.323 z"
     id="path44" />
  <defs
     id="defs45">
    <linearGradient
       id="gradient_5"
       gradientUnits="userSpaceOnUse"
       x1="736.02814"
       y1="459.245"
       x2="705.27692"
       y2="428.06433"
       gradientTransform="translate(-56.270374,-43.916335)">
      <stop
         offset="0"
         stop-color="#E87516"
         id="stop44" />
      <stop
         offset="1"
         stop-color="#D39559"
         id="stop45" />
    </linearGradient>
  </defs>
  <path
     fill="url(#gradient_5)"
     d="m 636.72263,406.05367 c 13.484,-0.444 23.613,-3.294 34.538,-11.559 3.87,-2.929 8.075,-6.369 12.782,-7.613 6.503,-1.72 15.134,-1.266 21.945,-1.273 -2.324,4.272 -5.861,11.477 -9.071,14.786 -1.885,0.175 -10.378,0.88 -11.885,1.362 -7.459,2.382 -14.542,5.569 -22.115,7.977 -3.291,1.047 -16.839,4.424 -18.175,5.123 -1.069,2.865 2.465,6.997 4.207,9.244 l 1.383,0.332 0.167,0.716 -0.937,0.527 c 0.451,1.47 -0.169,-0.09 0.747,1.319 2.182,3.357 0.249,4.107 3.539,7.36 -0.2,0.916 -0.029,0.712 -0.538,1.401 -4.755,-5.729 -9.418,-9.231 -14.89,-14.17 l -2.052,-1.901 c -2.383,-2.124 -2.411,-4.589 -3.597,-6.344 -0.242,-0.357 -6.105,0.618 -7.848,-0.658 -0.675,-1.926 -0.743,-1.043 -0.046,-2.746 2.43,-1.755 9.143,-2.533 11.846,-3.883 z"
     id="path45"
     style="fill:url(#gradient_5)" />
  <defs
     id="defs47">
    <linearGradient
       id="gradient_6"
       gradientUnits="userSpaceOnUse"
       x1="322.87958"
       y1="365.88547"
       x2="345.1178"
       y2="392.83063"
       gradientTransform="translate(-56.270374,-43.916335)">
      <stop
         offset="0"
         stop-color="#E57315"
         id="stop46" />
      <stop
         offset="1"
         stop-color="#D48F4A"
         id="stop47" />
    </linearGradient>
  </defs>
  <path
     fill="url(#gradient_6)"
     d="m 260.50963,323.79167 c 10.264,4.452 21.03,10.4 32.172,12.381 2.784,0.494 4.502,0.588 7.104,1.807 l 2.549,1.298 c -0.378,2.116 -4.955,3.735 -7.026,5.049 -0.495,1.414 -0.444,0.681 0.075,2.271 -0.571,2.295 -8.952,5.455 -11.335,5.058 -0.681,-0.716 -0.692,-0.564 -1.072,-1.413 l -0.34,-0.801 c -1.597,0.345 -7.808,5.644 -9.064,7.141 0.372,3.091 1.613,2.265 1.147,4.923 -1.892,2.08 -5.299,4.455 -7.797,5.768 -1.868,-3.129 -4.354,-7.838 -5.541,-11.229 1.118,1.081 1.777,2.154 3.293,1.966 l 1.176,-2.363 c 1.531,-0.926 0.726,-0.749 2.497,-0.561 0.284,2.166 -2.048,2.627 -2.009,5.204 1.85,-0.294 4.281,-0.826 5.479,-2.341 -0.166,-5.19 -8.908,-27.721 -11.308,-34.158 z"
     id="path47"
     style="fill:url(#gradient_6)" />
  <path
     fill="#d75e08"
     d="m 282.63663,349.44167 c -1.327,-2.62 -4.045,-6.901 -0.104,-8.456 3.146,0.294 9.325,3.533 12.361,4.953 -3.352,1.13 -8.905,2.821 -11.917,4.304 z"
     id="path48" />
  <path
     fill="#e17d28"
     d="m 312.42163,288.66767 c 6.668,0.886 17.143,1.96 23.812,2.206 18.36,0.675 30.514,-0.204 47.047,9.505 -2.796,1.527 -22.791,1.031 -27.499,1.301 -14.316,0.341 -30.574,-7.139 -43.36,-13.012 z"
     id="path49" />
  <path
     fill="#e17d28"
     d="m 273.48263,149.00867 c 0.706,0.894 0.214,4.308 0.139,5.83 4.966,10.393 14.131,16.712 23.888,22.056 4.185,2.292 9.372,6.793 13.483,8.628 23.317,10.407 50.057,13.328 74.932,17.166 14.757,2.989 29.22,6.373 44.356,6.8 5.803,0.163 11.186,0.177 16.989,-0.182 10.132,-0.626 20.765,-2.045 30.877,-0.989 12.21,1.275 20.478,12.875 33.337,12.68 8.626,-0.13 16.759,-1.119 25.326,-2.123 l 37.359,-4.45 c 10.4,-1.155 21.196,-0.939 31.591,-1.962 10.876,-1.071 21.909,-4.165 33.112,-2.729 1.197,0.153 4.308,2.009 5.471,2.673 -8.136,9.93 -13.388,10.329 -24.763,14.025 -1.877,0.61 -1.832,3.366 -0.311,4.853 5.399,0.902 13.774,-0.978 19.451,-0.901 14.923,0.204 28.367,-1.381 43.019,-3.719 18.012,-2.875 31.927,-4.536 47.8,-14.58 1.262,1.397 2.996,2.389 4.586,3.435 3.807,11.94 4.108,36.888 4.126,49.66 -7.923,1.339 -12.264,6.434 -18.284,9.731 -13.231,7.248 -37.292,4.036 -52.337,2.824 8.336,-1.262 20.826,-4.844 29.987,-6.714 2.583,-0.468 4.252,-0.469 5.928,-2.442 0.026,-0.727 0.228,-1.208 -0.276,-1.518 -5.782,-3.56 -18.953,0.527 -25.484,0.878 -2.394,0.129 -11.529,0.992 -12.47,1.375 -4.372,1.778 -7.803,4.448 -12.848,6.239 -10.464,3.714 -21.171,7.661 -32.281,8.693 -7.735,0.719 -15.399,-1.298 -23.005,-2.301 -27.114,-3.577 -53.565,-12.775 -80.923,-14.255 -6.353,-0.344 -17.397,-0.41 -23.387,0.434 -13.465,1.895 -23.723,4.578 -37.626,4.39 l -5.762,-4.815 c -16.177,-1.432 -41.931,0.31 -58.572,2.157 7.855,-5.721 16.597,-5.521 25.799,-6.789 1.656,-0.228 2.538,-0.492 3.476,-1.728 -4.253,-5.942 -23.22,-4.329 -29.293,-5.56 -0.878,-1.572 -1.404,-2.938 -3.006,-3.726 -9.132,-4.491 -36.842,-5.089 -45.392,-1.662 2.429,3.878 25.293,2.045 30.744,3.145 6.021,1.216 6.012,1.316 11.633,4.036 -12.881,-0.364 -25.743,1.551 -38.59,0.222 -8.395,-0.869 -16.097,-4.375 -24.176,-6.75 -13.506,-3.969 -26.994,-6.957 -40.314,-11.557 -10.525,-3.635 -20.549,-9.046 -31.104,-12.158 0.197,-25.035 9.588,-57.013 22.795,-78.32 z"
     id="path50" />
  <path
     fill="#d75e08"
     d="m 271.90563,164.24467 c 2.229,0.973 2.572,3.001 3.405,5.153 4.012,2.24 7.849,5.929 11.931,8.395 8.017,4.84 35.383,15.61 39.701,22.233 -12.493,-0.797 -21.731,-4.393 -33.281,-8.875 -13.107,-5.086 -24.645,-10.454 -21.756,-26.906 z"
     id="path51" />
  <path
     fill="#e48f36"
     d="m 506.54863,251.80867 c 3.034,-0.16 6.023,0.035 9.059,0.171 -14.365,9.466 -22.468,9.802 -39.753,10.012 -3.708,0.096 -6.314,0.509 -9.699,-0.945 l -0.235,-0.719 c 4.856,-4.643 32.911,-8.047 40.628,-8.519 z"
     id="path52" />
  <path
     fill="#d75e08"
     d="m 466.15363,240.52967 0.118,0.085 -0.163,0.364 c -4.866,1.086 -17.023,1.182 -22.18,1.022 l -0.391,-0.455 c 1.405,-0.679 19.865,-0.979 22.616,-1.016 z"
     id="path53" />
  <path
     fill="#e17d28"
     d="m 332.19763,76.518665 c 1.992,1.473 3.507,8.07 4.15,10.559 15.36,11.258 41.253,14.743005 59.835,18.265005 11.862,2.285 23.698,4.702 35.507,7.249 36.087,7.546 71.993,15.732 108.334,22.107 10.31,1.809 20.507,2.548 30.751,4.093 15.25,3.001 30.626,4.216 45.933,6.283 30.929,4.175 60.021,1.387 90.91,1.55 1.049,3.97 3.523,10.653 0.699,14.15 -4.314,5.343 -15.794,1.233 -22.317,0.48 -9.916,-1.143 -18.513,-2.089 -28.776,-1.254 9.537,5.26 31.998,9.323 43.328,10.592 -42.531,6.222 -84.594,-7.726 -126.97,-5.629 -4.94,0.245 -10.059,0.006 -14.966,0.545 12.254,3.973 28.814,4.565 42.36,6.129 34.799,4.019 70.852,7.791 105.904,5.269 4.372,-0.315 12.851,-4.043 15.017,-7.767 l 0.604,-0.037 c 4.208,5.733 7.137,22.134 8.455,29.671 -7.369,-0.559 -17.896,-3.198 -25.306,-4.876 l -3.453,-0.517 c -4.188,-0.656 -5.927,1.337 -10.17,1.155 -2.981,-0.128 -6.076,-1.473 -9.042,-2.036 -5.509,-1.047 -9.459,3.929 -13.689,7.101 -4.222,3.166 -13.943,-2.668 -18.1,-4.996 -16.816,-9.415 -26.172,-2.865 -43.447,-1.555 -7.314,0.555 -15.28,-1.223 -22.619,-2.738 3.311,-0.164 6.52,-0.143 9.677,-1.121 -9.306,-1.177 -18.696,-2.327 -27.761,-4.988 -6.345,-1.862 -25.873,-11.133 -31.405,-8.044 l -0.2,1.021 c 1.971,3.37 10.885,7.39 14.611,9 -9.74,-0.293 -25.313,-3.109 -35.425,-4.664 -19.269,-2.855 -38.515,-5.859 -57.737,-9.01 -18.541,-2.983 -37.35,-4.09 -56.025,-5.763 -5.62,-0.503 -12.3,-3.319 -18.013,-4.288 -28.812,-4.888 -57.933,-11.568 -83.627,-26 -6.937,-3.896 -7.373,-8.068 -9.242,-15.43 3.177,-6.292 11.353,-14.521 16.512,-19.505 -0.008,2.715 0.213,5.388 0.392,8.097 0.517,0.777 1.044,1.562 1.653,2.272 8.491,9.913 92.238,23.695 108.199,25.615 5.61,0.675 11.224,-0.344 16.817,0.178 l 6.72,0.6 c -7.907,-2.877 -18.199,-4.588 -26.528,-7.017 -6.995,-1.85 -13.87,-5 -20.842,-6.808 -22.239,-5.768 -44.407,-12.056 -66.111,-19.596 -1.673,-0.581 -3.137,-2.307 -4.122,-3.727 -2.223,-3.163005 -3.042,-7.103005 -2.265,-10.890005 1.332,-6.542 6.727,-10.258 11.79,-13.725 z"
     id="path54" />
  <path
     fill="#d75e08"
     d="m 307.25663,119.89967 c 2.33,1.019 8.349,11.402 8.08,13.859 l -1.39,0.38 c -3.808,-2.631 -10.239,-7.038 -9.815,-12.169 1.134,-1.676 0.867,-1.171 3.125,-2.07 z"
     id="path55" />
  <path
     fill="#d75e08"
     d="m 466.98663,159.26967 c 7.522,1.182 26.559,0.735 31.976,5.677 -6.931,0.599 -25.835,-2.357 -31.976,-5.677 z"
     id="path56" />
  <path
     fill="#d75e08"
     d="m 447.39563,157.57367 c 3.596,-0.135 4.697,0.097 8.216,0.7 2.182,1.936 3.201,2.239 3.803,4.726 -4.729,1.25 -9.315,-1.672 -12.019,-5.426 z"
     id="path57" />
  <path
     fill="#d75e08"
     d="m 457.66463,164.23167 c 4.708,-0.36 6.844,0.802 10.65,3.383 -3.986,-0.639 -7.423,-0.875 -10.65,-3.383 z"
     id="path58" />
  <path
     fill="#e17d28"
     d="m 386.29263,40.140965 c 8.497,-2.3964 16.187,-6.2062 24.583,-8.8679 25.87,-8.2021 51.03,-13.5143 78.106,-14.6159 57.387,-2.3349 115.714,15.4462 161.015,50.9535 4.352,3.411 10.093,7.737 14.056,11.463 -4.334,-1.015 -8.447,-2.02 -12.854,-2.717 -2.163,2.117 -4.351,2.287 -7.496,2.056 -4.793,-0.353 -14.608,-0.088 -18.863,-1.192 -19.652,1.661 -41.09,1.682 -60.876,1.37 -11.303,-0.882 -22.521,-2.823 -33.804,-4.012 -28.791,-3.035 -57.624,-6.527 -86.144,-11.549 -10.522,-1.853 -21.884,-3.946 -31.978,-7.4051 -9.283,-3.1807 -17.611,-10.0502 -25.745,-15.4836 z"
     id="path59" />
  <path
     fill="#d75e08"
     d="m 624.83963,77.220665 c -1.577,-1.108 -1.567,-0.734 -2.169,-2.227 l 0.687,-0.842 c 5.495,-1.953 21.553,1.062 27.841,2.205 -2.163,2.117 -4.351,2.287 -7.496,2.056 -4.793,-0.353 -14.608,-0.088 -18.863,-1.192 z"
     id="path60" />
  <path
     fill="#e48f36"
     d="m 494.04163,21.808365 c 27.384,-0.9814 47.681,6.8142 72.017,17.9201 6.32,2.8839 13.993,5.8356 19.479,10.1208 -9.643,-2.0795 -11.802,-3.1454 -22.429,-4.0766 -12.879,-1.1095 -40.612,-6.5577 -52.847,-10.0714 -15.637,-4.4911 -27.736,-8.6846 -44.522,-11.394 9.936,-1.8317 18.259,-1.9684 28.302,-2.4989 z"
     id="path61" />
  <path
     fill="#e48f36"
     d="m 447.33963,40.818165 c 2.423,-0.1517 5.813,0.1741 8.296,0.3204 16.363,0.9634 32.757,0.5443 49.121,0.9627 -0.073,2.5207 0.324,3.3544 -0.234,5.9763 -1.247,1.3348 -0.458,0.8147 -2.806,1.0287 -11.771,-0.4859 -49.554,-2.1578 -58.144,-7.3941 1.207,-0.9209 1.984,-0.6907 3.767,-0.894 z"
     id="path62" />
  <path
     fill="#d75e08"
     d="m 594.11163,57.221665 0.438,0.469 -0.349,0.63 c -25.206,9.244 -34.633,8.803 -61.154,1.88 -1.509,-0.611 -3.045,-1.334 -4.536,-2.006 22.226,-0.461 43.756,5.102 65.601,-0.973 z"
     id="path63" />
  <path
     fill="#d75e08"
     d="m 402.52963,36.564465 c 2.547,1.5673 7.926,7.6413 10.196,8.6641 10.746,4.8415 22.332,5.6232 33.888,9.9157 -2.601,0.0977 -5.392,-0.0574 -8.008,-0.1423 -16.843,-1.9427 -30.455,-2.463 -42.845,-14.7047 2.188,-1.0664 4.623,-2.5219 6.769,-3.7328 z"
     id="path64" />
  <path
     fill="#d75e08"
     d="m 619.51463,50.291965 0.749,-0.0475 c 1.214,2.054 -0.834,5.9502 -2.74,6.9532 -4.692,2.471 -12.157,3.374 -17.311,2.07 l -4.051,-4.0589 c 8.453,-2.2274 14.728,-3.6154 23.353,-4.9168 z"
     id="path65" />
  <path
     fill="#d75e08"
     d="m 620.68163,65.939665 c 1.635,1.231 4.308,2.865 4.994,4.632 l -0.691,1.123 c -1.718,-0.349 -4.022,-0.701 -5.118,-1.965 -0.353,-2.018 -0.149,-1.541 0.815,-3.79 z"
     id="path66" />
  <path
     fill="#e17d28"
     d="m 503.43163,103.20567 c 14.245,-0.97 19.378,5.236 30.694,7.273 12.529,2.255 36.541,2.06 49.929,2.374 1.466,0.034 9.789,-2.593 11.571,-3.139 4.48,1.11 9.835,3.357 13.945,4.801 6.308,2.216 38.42,5.073 42.235,1.694 l -0.205,-0.712 c -7.507,-5.495 -27.402,-4.602 -37.328,-5.484 -6.108,-0.526 -12.157,-1.595 -18.075,-3.192 12.081,-0.791 38.485,-0.459 50.51,1.776 7.326,1.361 15.267,6.333 26.187,7.817 4.984,0.784 5.928,-0.347 9.756,-3.299 4.301,-0.128 8.28,-0.074 12.573,0.004 5.849,7.476 9.693,16.188 12.622,25.148 -1.357,-0.431 -3.683,-1.124 -4.835,-1.838 -2.329,-1.444 -5.515,-6.951 -8.004,-7.179 -10.425,-0.957 -19.318,3.103 -30.252,2.369 -13.105,-0.88 -27.387,-6.312 -40.126,-4.751 -2.588,0.317 -6.568,1.144 -8.87,0.566 -7.672,-1.926 -13.125,-5.447 -21.272,-6.37 -7.211,-0.817 -12.006,3.064 -18.507,2.844 -4.884,-0.165 -11.103,-2.009 -16.287,-2.736 -8.875,-1.246 -19.331,-2.065 -27.87,-4.468 -9.589,-2.699 -19.532,-8.752 -28.391,-13.498 z"
     id="path67" />
  <path
     fill="#e17d28"
     d="m 264.12363,265.64467 c 14.45,-0.365 25.937,3.171 39.544,7.643 3.808,1.251 15.852,4.179 17.897,7.01 -1.043,0.492 -3.414,0.537 -4.713,0.639 -8.614,0.569 -59.708,2.26 -56.799,-12.417 1.084,-1.593 2.335,-1.991 4.071,-2.875 z"
     id="path68" />
  <path
     fill="#b63a1d"
     d="m 630.26663,364.17567 c 8.849,-0.954 38.04582,-7.36179 43.46182,-0.94979 -2.26835,10.22437 -3.77306,16.04103 -20.88868,19.32703 -2.33,2.664 -18.65014,3.29276 -21.98514,3.27576 -7.596,0 -8.652,0.201 -14.975,-4.398 -1.161,-1.998 -3.177,-6.741 -2.361,-8.984 3.644,-4.603 11.067,-7.377 16.748,-8.271 z"
     id="path69" />
  <path
     fill="#e17d28"
     d="m 620.57663,133.18467 c 2.732,0.382 5.688,0.91 8.411,1.394 22.117,3.925 45.999,0.422 68.042,3.681 -2.272,0.551 -4.43,0.815 -6.739,1.148 -18.173,2.928 -34.591,5.548 -52.976,2.275 -4.205,-0.749 -12.277,-1.632 -15.486,-5.589 0.08,0.098 -1.199,-2.787 -1.252,-2.909 z"
     id="path70" />
  <path
     fill="#e17d28"
     d="m 502.53863,277.16367 c 10.264,-1.109 24.928,0.884 34.212,5.751 -5.225,1.872 -9.414,2.701 -14.796,3.811 -14.079,2.264 -20.491,0.547 -33.688,-3.037 4.921,-2.969 8.908,-4.521 14.272,-6.525 z"
     id="path71" />
  <path
     fill="#e17d28"
     d="m 472.99263,187.81267 c 2.702,1.245 4.923,3.334 7.162,5.277 12.368,-0.069 21.786,1.491 33.007,6.352 1.229,1.509 1.768,2.614 2.718,4.327 -8.142,0.015 -15.082,-1.103 -22.935,-3.14 -6.715,-1.742 -21.422,-3.23 -19.952,-12.816 z"
     id="path72" />
  <path
     fill="#e17d28"
     d="m 523.50463,191.01467 c 1.087,-0.01 2.174,0.023 3.258,0.102 8.518,0.647 41.863,8.621 46.595,14.043 -7.762,1.871 -31.973,-5.979 -40.488,-8.309 -2.772,-0.759 -7.026,-3.993 -9.365,-5.836 z"
     id="path73" />
  <path
     fill="#e17d28"
     d="m 680.26063,215.74967 c 8.394,-0.764 13.812,1.691 21.142,5.251 -8.209,1.653 -13.028,1.881 -21.295,1.378 -7.059,-0.638 -16.904,-0.269 -24.011,0.06 9.129,-2.252 14.004,-5.016 24.164,-6.689 z"
     id="path74" />
  <path
     fill="#e17d28"
     d="m 433.07263,280.79167 c 5.414,-0.558 19.025,-0.419 21.047,5.653 l -0.558,0.929 c -3.961,1.867 -9.87,0.418 -14.158,-0.403 -9.431,-1.791 -16.467,-3.091 -26.007,-3.899 z"
     id="path75" />
  <path
     fill="#e17d28"
     d="m 734.06263,281.24667 c 1.287,-0.184 1.35,-0.136 2.658,0.023 l 0.591,1.018 c 0.052,2.346 0.191,2.793 -0.622,4.914 -0.783,0.671 -23.455,5.506 -26.57,6.304 -1.508,0.498 -1.589,0.54 -3.159,0.683 l 0.171,-0.689 c 6.551,-5.685 18.181,-10.956 26.931,-12.253 z"
     id="path76" />
  <path
     fill="#e17d28"
     d="m 410.81863,73.743665 c 6.477,-0.327 37.419,4.317 42.792,6.687 -5.052,-0.011 -38.183,-5.311 -42.792,-6.687 z"
     id="path77" />
  <path
     fill="#e17d28"
     d="m 462.43363,97.279665 c 3.196,-0.467 8.195,-0.152 9.181,3.664005 -2.691,-0.507 -8.025,-1.100005 -9.181,-3.664005 z"
     id="path78" />
  <path
     fill="#3e7695"
     d="m 505.18663,429.26467 c 5.461,-2.38 12.363,-5.186 18.025,-7.122 12.875,14.916 25.525,31.786 41.955,43.162 8.462,2.253 15.468,2.245 22.831,3.931 -0.67,9.249 -2.657,16.115 -3.867,24.749 -0.907,6.47 0.193,16.309 -0.26,23.521 l 0.997,1.211 c -1.556,1.834 -2.491,3.5 -3.742,5.537 -0.287,0.004 -0.574,0.009 -0.862,0.013 l -1.278,0.354 c -2.576,-7.778 -12.599,-26.902 -18.099,-32.639 -1.762,-0.617 -0.897,-0.613 -2.687,0.038 l -0.458,1.115 c 0.629,5.611 12.077,23.099 15.405,30.132 -1.16,1.145 -2.035,1.712 -2.273,3.287 1.066,2.331 1.849,9.668 2.258,12.58 l -0.485,0.619 c -3.112,5.005 -7.338,10.713 -10.718,15.67 -3.478,5.102 -8.753,13.714 -12.853,18.152 -2.977,4.366 -8.592,7.904 -13.173,10.434 -6.995,5.203 -17.997,9.384 -23.121,14.016 1.413,5.455 2.287,11.194 3.249,16.758 0.312,2.422 0.698,6.55 1.387,8.755 -0.086,2.857 -0.427,3.568 -2.679,5.53 -10.791,9.401 -23.569,12.658 -28.27,27.391 l -0.844,2.574 -0.985,2.857 -2.003,5.633 -5.512,18.519 c 2.757,8.576 7.796,25.656 11.3,33.484 -7.392,2.047 -16.514,4.49 -24.124,5.027 10.918,-36.061 10.51,-20.025 -16.254,-37.411 -1.672,-1.086 -8.073,-8.635 -10.348,-10.733 -4.835,2.7 -14.028,9.33 -18.453,10.915 l -14.526,-2.828 -0.947,-0.233 c -5.091,-0.71 -10.744,-2.031 -15.605,-2.568 3.733,2.396 6.096,3.942 10.447,5.146 7.237,2.589 14.573,4.739 22.18,5.958 5.649,-3.059 10.967,-6.33 16.53,-9.388 12.453,15.421 10.269,10.237 27.533,19.024 -2.133,7.452 -3.687,15.431 -5.295,23.046 l -0.993,7.467 c -20.386,3.696 -67.12,-1.393 -87.101,-6.298 -27.319,-6.706 -53.455,-20.217 -75.114,-37.959 -3.202,-2.623 -11.108,-7.847 -13.015,-11.005 2.06,-4.389 4.479,-11.548 5.915,-16.12 0.984,-3.269 3.848,-4.899 6.594,-6.926 4.277,-3.566 8.92,-7.115 13.312,-10.576 12.6,0.061 23.058,0.377 35.861,-0.035 3.922,-0.398 4.945,0.055 7.344,-3.349 0.048,-3.384 1.612,-12.098 2.181,-15.834 1.174,-7.619 2.151,-15.266 2.932,-22.935 0.585,-7.99 2.037,-12.663 5.004,-19.989 6.679,-22.58 15.243,-31.579 27.851,-50.929 l 1.572,-1.546 c 2.65,0.219 20.233,15.282 23.627,18.165 1.391,6.316 2.98,12.586 4.764,18.802 0.379,1.353 2.622,8.859 2.736,9.871 0.996,1.588 1.261,2.157 2.667,3.46 11.319,6.976 22.352,14.505 34.415,20.17 l 0.216,-0.466 c -0.975,-3.523 -14.239,-12.73 -17.576,-15.209 l -2.513,-1.946 c -3.434,-2.084 -8.335,-5.678 -11.783,-8.034 -1.56,-6.417 -5.969,-26.863 -9.224,-31.156 -3.045,-4.016 -25.719,-23.212 -30.575,-24.037 l -2.362,-0.888 c 2.035,-0.124 3.171,-0.073 4.5,-1.528 -1.838,-2.868 -6.911,-2.623 -9.931,-2.603 -6.389,0.281 -8.914,0.764 -15.018,2.782 l -0.255,-0.572 c 1.949,-3.6 7.728,-11.104 10.009,-14.156 14.681,-19.642 26.798,-44.198 53.133,-49.3 6.04,-1.17 25.232,-8.509 30.461,-5.073 l -4.882,7.142 c -1.461,2.363 -3.013,4.984 -4.534,7.28 4.003,14.923 8.52,24.846 10.708,40.488 1.073,5.508 0.899,8.986 -0.122,14.569 l -2.147,9.83 c 2.622,6.633 6.825,14.379 10.163,20.84 -3.439,6.033 -4.744,8.85 -6.909,15.456 6.038,-5.158 8.557,-9.282 12.709,-15.917 -1.89,-4.977 -6.771,-14.514 -9.213,-19.95 1.065,-5.357 2.667,-10.646 3.434,-16.065 l -0.925,-4.913 c -2.267,-12.723 -7.108,-28.601 -10.45,-41.601 1.93,-2.975 4.466,-6.172 6.636,-9.038 4.171,-6.699 7.017,-12.143 14.468,-15.868 8.789,-4.393 17.801,-7.497 27.054,-10.717 z"
     id="path79" />
  <path
     fill="#1b4e6f"
     d="m 537.07963,555.16567 c 3.533,-2.589 5.375,-4.776 9.369,-7.372 -1.045,10.209 -1.751,16.793 -6.069,26.392 -1.322,2.94 -3.15,6.527 -4.315,9.413 l -0.162,0.41 c -6.995,5.203 -17.997,9.384 -23.121,14.016 1.413,5.455 2.287,11.194 3.249,16.758 0.312,2.422 0.698,6.55 1.387,8.755 -0.086,2.857 -0.427,3.568 -2.679,5.53 -10.791,9.401 -23.569,12.658 -28.27,27.391 l -0.844,2.574 -0.985,2.857 -2.003,5.633 -5.512,18.519 c 2.757,8.576 7.796,25.656 11.3,33.484 -7.392,2.047 -16.514,4.49 -24.124,5.027 10.918,-36.061 10.51,-20.025 -16.254,-37.411 -1.672,-1.086 -8.073,-8.635 -10.348,-10.733 -4.835,2.7 -14.028,9.33 -18.453,10.915 l -14.526,-2.828 -0.947,-0.233 c -5.091,-0.71 -10.744,-2.031 -15.605,-2.568 3.733,2.396 6.096,3.942 10.447,5.146 7.237,2.589 14.573,4.739 22.18,5.958 5.649,-3.059 10.967,-6.33 16.53,-9.388 12.453,15.421 10.269,10.237 27.533,19.024 -2.133,7.452 -3.687,15.431 -5.295,23.046 -32.697,3.893 -78.981,0.184 -109.982,-12.066 -6.158,-2.434 -26.525,-11.2 -28.943,-16.566 0.285,-4.842 -4.494,-14.691 -6.457,-20.399 8.389,4.063 16.062,9.605 24.885,13.033 14.545,5.652 23.416,11.056 38.648,5.164 -9.092,-3.062 -4.285,-5.497 -9.082,-6.334 -8.28,-1.446 -11.754,0.232 -18.895,-6.351 5.606,-1.206 9.992,-1.052 15.669,-1.415 0.302,-0.263 2.182,-1.844 2.288,-1.86 3.181,-0.481 7.03,-1.068 10.135,-1.591 4.79,-0.806 9.517,-1.951 14.145,-3.427 13.196,-4.224 19.173,-8.616 30.616,-15.398 5.741,-3.402 17.682,-5.53 24.41,-9.072 13.574,-7.146 27.099,-16.178 38.07,-26.951 5.868,-5.807 10.618,-12.944 16.196,-18.969 2.948,-3.184 9.107,-6.918 10.549,-10.64 -0.236,-1.141 -0.895,-3.555 -0.067,-4.444 11.989,-12.883 17.979,-23.226 24.262,-39.558 0.286,2.179 0.693,4.362 1.07,6.529 z"
     id="path80" />
  <path
     fill="#3e7695"
     d="m 473.45863,652.71567 -1.554,8.839 c 4.802,-1.297 10.32,-2.563 14.564,-5.096 l -0.844,2.574 -0.985,2.857 -2.003,5.633 -1.169,-0.321 c -1.795,0.77 -3.956,2.917 -5.499,4.279 -8.122,-1.129 -16.253,2.039 -24.085,4.383 4.938,-7.404 13.152,-9.795 15.492,-14.289 l -1.204,0.378 1.116,-0.45 c -1.763,0.473 -6.339,3.539 -8.228,4.601 -8.327,4.683 -15.845,8.003 -25.354,9.034 11.368,-4.53 28.752,-15.899 39.753,-22.422 z"
     id="path81" />
  <path
     fill="#1b4e6f"
     d="m 472.87063,665.00767 c 3.273,-1.946 9.273,-5.997 12.754,-5.975 l -0.985,2.857 c -3.483,0.169 -8.307,1.989 -11.769,3.118 z"
     id="path82" />
  <path
     fill="#3e7695"
     d="m 391.66463,680.30367 c 3.444,0.02 9.931,0.008 12.377,2.621 l -0.269,1.338 c -5.091,-0.71 -10.744,-2.031 -15.605,-2.568 3.733,2.396 6.096,3.942 10.447,5.146 -12.547,1.605 -16.444,-0.405 -28.748,-2.247 6.426,-0.984 15.732,-2.308 21.798,-4.29 z"
     id="path83" />
  <path
     fill="#386e8d"
     d="m 516.03063,614.78267 c 0.312,2.422 0.698,6.55 1.387,8.755 -0.268,-0.17 -0.827,-0.319 -1.159,-0.429 -2.356,1.504 -4.64,5.339 -6.767,5.346 -2.661,-5.339 5.952,-8.534 6.539,-13.672 z"
     id="path84" />
  <path
     fill="#235576"
     d="m 391.66463,680.30367 3.948,-1.015 c 3.044,-0.811 8.835,-1.628 11.72,-0.114 l 0.571,1.141 c -0.714,1.687 -2.155,2.587 -3.184,4.18 l -0.947,-0.233 0.269,-1.338 c -2.446,-2.613 -8.933,-2.601 -12.377,-2.621 z"
     id="path85" />
  <path
     fill="#386e8d"
     d="m 405.28063,694.71167 0.579,0.508 c -1.756,1.66 -11.238,3.105 -14.156,3.665 l -0.658,-0.29 c 1.354,-1.642 11.47,-3.319 14.235,-3.883 z"
     id="path86" />
  <path
     fill="#386e8d"
     d="m 397.76363,677.34767 c 2.913,-0.145 15.785,-0.881 17.543,0.461 -2.581,0.618 -14.066,-0.285 -17.543,-0.461 z"
     id="path87" />
  <path
     fill="#1b4e6f"
     d="m 520.84263,458.32867 c 17.79,6.142 28.497,16.587 39.686,31.28 l 6.165,-2.48 c 0.172,-7.733 -0.089,-14.157 -1.527,-21.824 8.462,2.253 15.468,2.245 22.831,3.931 -0.67,9.249 -2.657,16.115 -3.867,24.749 -0.907,6.47 0.193,16.309 -0.26,23.521 l 0.997,1.211 c -1.556,1.834 -2.491,3.5 -3.742,5.537 -0.287,0.004 -0.574,0.009 -0.862,0.013 l -1.278,0.354 c -2.576,-7.778 -12.599,-26.902 -18.099,-32.639 -1.762,-0.617 -0.897,-0.613 -2.687,0.038 l -0.458,1.115 c 0.629,5.611 12.077,23.099 15.405,30.132 -1.16,1.145 -2.035,1.712 -2.273,3.287 1.066,2.331 1.849,9.668 2.258,12.58 l -0.485,0.619 c -3.112,5.005 -7.338,10.713 -10.718,15.67 -3.478,5.102 -8.753,13.714 -12.853,18.152 0.023,0.169 5.489,-27.459 5.708,-30.081 2.16,-25.931 -0.313,-32.974 -18.064,-50.559 1.261,-3.842 2.97,-7.523 5.09,-10.967 -10.326,-7.341 -16.012,-12.079 -20.967,-23.639 z"
     id="path88" />
  <path
     fill="#386e8d"
     d="m 570.87363,526.55367 c 1.066,2.331 1.849,9.668 2.258,12.58 l -0.485,0.619 c -1.637,-2.193 -1.901,-10.317 -1.773,-13.199 z"
     id="path89" />
  <path
     fill="#3e7695"
     d="m 583.87063,517.50567 0.997,1.211 c -1.556,1.834 -2.491,3.5 -3.742,5.537 -0.287,0.004 -0.574,0.009 -0.862,0.013 0.818,-2.51 2.165,-4.594 3.607,-6.761 z"
     id="path90" />
  <path
     fill="#1b4e6f"
     d="m 365.84863,516.82967 -0.255,-0.572 c 1.949,-3.6 7.728,-11.104 10.009,-14.156 14.681,-19.642 26.798,-44.198 53.133,-49.3 6.04,-1.17 25.232,-8.509 30.461,-5.073 l -4.882,7.142 c -1.461,2.363 -3.013,4.984 -4.534,7.28 4.003,14.923 8.52,24.846 10.708,40.488 1.073,5.508 0.899,8.986 -0.122,14.569 -5.781,1.311 -14.621,8.916 -18.985,12.823 5.254,-8.025 12.8,-16.226 6.955,-25.845 -22.665,-37.298 -27.808,-51.147 -57.057,-7.478 -2.183,3.259 -7.78,15.854 -10.413,17.34 -6.389,0.281 -8.914,0.764 -15.018,2.782 z"
     id="path91" />
  <path
     fill="#3e7695"
     d="m 439.11763,458.09767 c 5.113,-1.281 10.671,-1.544 15.197,-3.227 -1.461,2.363 -3.013,4.984 -4.534,7.28 4.003,14.923 8.52,24.846 10.708,40.488 -1.309,-0.903 -3.307,-3.289 -4.43,-4.547 -9.974,-11.172 -13.122,-25.883 -16.941,-39.994 z"
     id="path92" />
  <path
     fill="#1b4e6f"
     d="m 505.18663,429.26467 c 3.068,1.472 9.893,-1.327 13.7,0.826 -1.909,1.454 -8.306,2.496 -10.849,3.084 -10.659,2.464 -18.176,7.661 -26.924,13.936 6.842,9.444 15.735,16.456 27.071,19.793 4.632,1.363 9.475,2.039 14.028,3.683 -6.027,2.62 -21.382,10.387 -24.137,16.528 -0.74,1.648 -0.868,8.874 -0.957,11.22 -7.301,-9.625 -4.763,-12.386 -10.137,-21.57 -2.647,-4.525 -12.131,-12.565 -16.433,-15.665 -2.212,-1.594 -4.997,-3.235 -6.884,-5.25 4.171,-6.699 7.017,-12.143 14.468,-15.868 8.789,-4.393 17.801,-7.497 27.054,-10.717 z"
     id="path93" />
  <path
     fill="#1b4e6f"
     d="m 362.48263,581.92167 c 10.912,2.814 20.909,6.074 32.234,4.054 6.252,-1.115 11.879,-2.394 18.243,-2.728 -3.702,3.354 -8.141,5.91 -12.443,8.445 3.022,-0.075 6.251,-0.213 9.252,-0.161 -6.903,3.452 -9.989,4.738 -17.575,6.217 -0.669,-1.674 -1.354,-3.497 -2.061,-5.14 -7.781,-0.011 -13.11,-0.295 -20.991,-1.223 -1.833,6.564 -3.528,13.754 0.469,19.878 8.007,12.268 24.624,18.522 34.922,28.716 -14.659,-2.138 -20.184,-5.994 -32.103,-14.568 -3.67,-2.641 -6.432,-4.119 -9.509,-7.729 -3.369,-3.952 -3.291,-12.483 -5.442,-15.772 0.585,-7.99 2.037,-12.663 5.004,-19.989 z"
     id="path94" />
  <path
     fill="#1b4e6f"
     d="m 390.33363,530.99267 1.572,-1.546 c 2.65,0.219 20.233,15.282 23.627,18.165 1.391,6.316 2.98,12.586 4.764,18.802 0.379,1.353 2.622,8.859 2.736,9.871 l -0.385,0.02 c -1.503,-2.136 -3.297,-9.984 -3.981,-12.823 l -0.857,0.212 c -2.285,3.332 1.669,7.056 2.227,10.16 -1.669,-0.961 -5.623,-12.356 -7.014,-15.024 -4.995,-9.574 -14.235,-21.322 -22.689,-27.837 z"
     id="path95" />
  <path
     fill="#1b4e6f"
     d="m 352.36563,640.67967 c 5.471,9.902 1.183,20.343 -6.159,27.797 -0.029,-9.005 -0.182,-15.423 -1.185,-24.448 3.922,-0.398 4.945,0.055 7.344,-3.349 z"
     id="path96" />
  <path
     fill="#1b4e6f"
     d="m 425.69963,579.74467 c 11.319,6.976 22.352,14.505 34.415,20.17 1.049,0.76 0.749,0.41 1.458,1.462 l -1.084,0.446 c -4.075,-0.258 -7.972,-1.741 -11.706,-3.327 -4.177,-1.774 -25.596,-13.656 -23.083,-18.751 z"
     id="path97" />
  <path
     fill="#1b4e6f"
     d="m 289.25463,661.56567 c 0.984,-3.269 3.848,-4.899 6.594,-6.926 1.766,6.462 2.879,12.506 4.431,18.912 -6.914,-4.071 -7.296,-4.927 -11.025,-11.986 z"
     id="path98" />
  <path
     fill="#1b4e6f"
     d="m 467.47863,506.48867 c 5.019,0.1 10.038,0.134 15.058,0.1 -3.693,1.943 -9.948,4.791 -14.133,4.813 z"
     id="path99" />
  <path
     fill="#386e8d"
     d="m 440.24163,582.29367 c 1.821,-1.679 4.644,-1.735 7.083,-1.601 l 0.33,0.914 c -1.702,2.008 -2.673,1.502 -4.9,2.633 z"
     id="path100" />
  <path
     fill="#1b4e6f"
     d="m 468.16263,612.95967 0.671,0.36 c 1.596,5.874 -5.388,11.46 -9.577,14.395 5.507,-2.099 15.893,-9.053 21.099,-12.367 -6.337,10.123 -18.928,21.201 -29.93,26.111 -4.269,1.905 -4.358,-0.697 -11.387,2.954 -5.285,2.771 -10.889,4.884 -16.688,6.293 1.488,-1.762 3.104,-3.548 4.631,-5.289 -3.372,-0.266 -7.223,-0.285 -10.643,-0.375 17.051,-5.903 37.268,-21.134 51.824,-32.082 z"
     id="path101" />
  <path
     fill="#1b4e6f"
     d="m 408.44263,652.10267 0.359,0.076 0.108,0.467 c -0.799,0.719 -1.605,1.429 -2.419,2.131 -8.122,6.978 -26.605,15.134 -37.293,16.845 -5.4,0.863 -9.569,0.785 -14.973,0.378 -0.95,-0.244 -0.526,0.013 -1.194,-0.886 2.286,-3.748 25.766,-11.808 31.58,-13.021 8.419,-1.756 15.371,-2.881 23.832,-5.99 z"
     id="path102" />
  <path
     fill="#1b4e6f"
     d="m 513.15163,570.43967 0.836,0.957 c 0.335,2.065 -0.282,3.767 -1.45,5.477 -10.211,14.95 -21.221,26.648 -38.658,31.586 -0.749,-0.872 -0.547,-0.515 -0.869,-1.6 2.472,-3.837 17.867,-14.987 22.683,-19.467 5.949,-5.532 11.657,-11.171 17.458,-16.953 z"
     id="path103" />
  <path
     fill="#1b4e6f"
     d="m 522.07863,539.92667 0.794,1.149 c 0.848,10.932 -12.792,22.193 -22.499,24.601 l -0.517,-0.789 c 0.117,-0.99 0.476,-1.515 1.185,-2.26 7.315,-7.692 14.636,-14.118 21.037,-22.701 z"
     id="path104" />
  <path
     fill="#1b4e6f"
     d="m 460.93663,611.61767 c 1.083,0.013 0.723,-0.012 1.78,0.359 -0.36,0.706 -0.673,1.191 -1.348,1.648 -6.716,4.547 -14.009,11.06 -22.376,10.238 -1.329,-0.333 -1.408,-0.494 -2.582,-1.254 l -0.082,-1.038 c 2.649,-3.713 19.583,-8.507 24.608,-9.953 z"
     id="path105" />
  <path
     fill="#1b4e6f"
     d="m 523.23763,447.80467 c 4.754,0.971 18.633,3.127 21.884,5.844 l -0.079,1.199 c -9.327,2.798 -16.855,1.856 -21.805,-7.043 z"
     id="path106" />
  <path
     fill="#1b4e6f"
     d="m 512.46263,497.37167 c 9.348,6.786 9.608,10.656 6.757,21.628 l -0.771,0.898 c -1.827,-2.288 -5.308,-18.842 -5.986,-22.526 z"
     id="path107" />
  <path
     fill="#1b4e6f"
     d="m 407.45563,613.26967 c 2.072,-0.197 2.149,-0.568 3.591,0.266 -0.332,1.529 -1.532,2.165 -2.82,3.204 -3.765,0.533 -10.835,1.039 -13.79,3.427 -0.705,0.57 -0.53,1.571 -0.627,2.71 l -0.559,0.821 -0.789,0.046 c -1.778,-1.292 -2.282,-3.427 -0.819,-5.134 3.425,-3.998 10.971,-4.67 15.813,-5.34 z"
     id="path108" />
  <path
     fill="#1b4e6f"
     d="m 547.36063,517.50367 c 0.204,0.077 0.8,0.596 1.003,0.76 1.23,2.885 3.5,8.922 -0.692,10.302 l -2.212,-1.364 c -9.22,-4.646 -4.702,-6.544 1.901,-9.698 z"
     id="path109" />
  <path
     fill="#1b4e6f"
     d="m 368.63163,630.41367 c 1.283,0.845 3.674,3.852 6.517,5.83 -2.03,1.367 -4.073,2.567 -6.168,3.826 -1.796,0.841 -0.961,0.844 -2.562,0.413 -1.385,-1.506 -1.606,-3.21 -2.16,-5.236 1.238,-1.543 3.003,-3.349 4.373,-4.833 z"
     id="path110" />
  <path
     fill="#1b4e6f"
     d="m 496.00063,529.41967 c 2.738,8.156 -6.499,10.693 -12.561,11.485 -0.046,-2.215 10.365,-9.753 12.561,-11.485 z"
     id="path111" />
  <path
     fill="#1b4e6f"
     d="m 389.19563,550.76667 c 1.846,1.152 2.326,2.435 3.4,4.327 -0.066,2.896 -0.293,6.514 -1.392,9.163 -5.271,-2.798 -3.069,-8.838 -2.008,-13.49 z"
     id="path112" />
  <path
     fill="#1b4e6f"
     d="m 427.16363,604.10267 c 4.766,-0.026 10.225,0.384 10.072,6.141 -2.434,-0.087 -4.802,-0.723 -7.194,-1.248 -1.925,-2.196 -2.549,-2.377 -2.878,-4.893 z"
     id="path113" />
  <path
     fill="#1b4e6f"
     d="m 426.47963,511.95467 c 0.458,4.592 -1.214,9.561 -4.047,13.191 -0.062,-2.769 3.006,-10.562 4.047,-13.191 z"
     id="path114" />
  <path
     fill="#1b4e6f"
     d="m 594.57363,581.48767 c 2.119,6.211 5.85,18.362 8.775,23.52 4.614,-1.461 12.69,-4.516 17.032,-5.048 2.89,1.411 4.661,2.188 7.239,4.123 l 3.573,3.597 c -1.94,5.888 -6.0266,12.87207 -14.65504,24.07433 -2.24389,3.7718 41.37477,33.02843 53.94394,36.38655 29.3158,5.96743 53.29368,9.85717 65.39367,21.45602 7.767,5.845 37.04935,10.1941 37.46431,22.96555 -2.0044,6.57596 -18.57746,-2.42886 -23.86846,-2.26886 -8.673,0.317 -11.37096,-3.52839 2.23703,19.2734 -3.54085,10.14882 3.96724,6.03106 -9.2757,-2.14333 -19.05167,-6.81733 -52.44166,-21.34042 -81.20446,-39.88872 -21.42747,-13.81795 -39.55003,-31.85945 -51.20747,-39.96405 -22.15115,22.60776 -31.52244,32.58523 -56.84182,50.28411 l -3.053,1.522 c -1.215,-1.63 -6.46646,4.29084 -6.97746,2.24784 -2.004,0.533 -13.42473,4.406 -15.57573,5.59 -10.778,5.93 -21.00581,9.30816 -33.08381,10.54616 -2.795,-9.493 -7.605,-22.629 -11.008,-32.058 2.503,-6.913 11.06,-30.637 14.619,-35.029 l 1.677,-1.08 c 4.558,-2.84 14.119,-10.054 18.315,-13.397 7.427,1.356 20.673,5.65 28.396,7.868 0.684,9.237 2.303,12.801 6.862,20.786 1.924,3.37 2.683,7.04 4.997,10.603 1.3,0.247 0.666,0.302 1.902,-0.429 2.527,-5.263 -5.34,-17.17 -6.937,-22.302 -0.736,-2.365 -1.465,-9.912 -1.784,-12.648 l -5.788,-2.863 c -0.055,-4.185 -0.119,-7.193 -0.589,-11.328 4.807,-3.623 14.913,-8.956 20.686,-12.552 2.251,-1.944 6.012,-4.534 7.609,-6.811 5.072,-7.236 4.359,-13.453 11.991,-18.993 z"
     id="path115" />
  <path
     fill="#68a1b5"
     d="m 691.08541,669.34601 c 11.48163,0.87166 31.40388,2.41096 37.45623,2.75907 8.95907,0.5153 9.34612,7.18493 14.10145,11.9879 3.85497,3.8936 6.63735,5.14039 12.72043,5.11062 8.77196,-0.0429 27.68169,18.96958 29.28377,25.53037 2.16242,8.85547 -24.80958,-2.54342 -36.16675,-1.4535 -3.468,4 17.38082,25.07751 12.08982,25.23751 -6.00829,0.2196 -25.18268,1.43957 -38.35675,-5.42508 -5.84276,-3.0445 -0.90661,-9.85649 -12.70542,-16.45106 -32.88172,-10.52354 -62.33456,-36.3617 -70.66152,-42.47119 -6.24852,-5.51505 -21.05987,-13.82738 -27.36664,-22.3194 -3.062,-5.214 -0.75961,-5.7448 -1.39161,-11.5978 4.329,4.569 9.93794,10.26553 14.59694,14.04053 26.8,21.715 40.71588,36.3553 51.50513,39.46915 -3.45821,-10.65283 -5.53256,-10.176 -13.85213,-16.88915 -14.386,-11.816 -29.597,-22.372 -43.319,-35.07 -2.68714,-2.43336 -7.75096,-8.2803 -7.45996,-10.2333 5.38422,1.48586 13.82738,5.12632 17.44453,8.08257 3.55808,2.82866 18.68762,10.96412 27.38389,15.18889 9.90045,4.80977 25.9838,13.02357 34.69759,14.50387 z"
     id="path116" />
  <defs
     id="defs118">
    <linearGradient
       id="gradient_7"
       gradientUnits="userSpaceOnUse"
       x1="786.15021"
       y1="720.31354"
       x2="783.35767"
       y2="723.19409"
       gradientTransform="translate(-63.647503,-44.405635)">
      <stop
         offset="0"
         stop-color="#194866"
         id="stop117" />
      <stop
         offset="1"
         stop-color="#346384"
         id="stop118" />
    </linearGradient>
  </defs>
  <path
     fill="url(#gradient_7)"
     d="m 706.33034,677.36405 c 7.592,2.115 61.79641,21.55722 67.17672,31.50129 -3.59991,-1.02345 -20.16195,-10.07026 -32.31998,-15.56853 -5.73731,-2.5946 -33.20142,-13.36299 -34.85674,-15.93276 z"
     id="path118"
     style="fill:url(#linearGradient3)" />
  <path
     fill="url(#gradient_7)"
     d="m 684.97223,678.88028 c 3.06309,0.85332 13.98863,4.34943 23.33881,11.83681 16.81586,13.46569 36.31629,29.63557 38.21706,33.87009 -4.68742,-1.33263 -25.28275,-17.04825 -41.85154,-30.05837 -8.75756,-6.87661 -18.44278,-13.55704 -19.70433,-15.64853 z"
     id="path118-8"
     style="fill:url(#linearGradient2)" />
  <path
     fill="#3e7695"
     d="m 597.27509,636.02909 c 1.4072,0.0916 7.02579,-0.78642 6.72005,-2.77666 1.77886,-5.29174 4.59167,-3.82064 9.39636,-4.15133 3.55571,-0.24472 6.16441,-0.60013 6.51854,-2.38618 -0.0605,-1.01804 -5.13496,0.51946 -5.99752,-0.17918 -2.22253,-1.80016 1.34765,-4.03864 -0.74735,-5.50442 -1.8127,-1.26827 -5.50391,3.00195 -7.06364,4.84077 -1.49528,5.45358 -10.21151,6.5879 -12.29588,9.2996 -5.4798,7.12903 2.23925,9.14448 4.81861,11.53721 2.99898,2.78199 4.17547,1.35711 5.55472,1.32471 1.25539,-0.0295 2.78922,1.46122 3.86945,1.19795 1.11496,-0.27172 -1.21966,-2.66094 -0.85943,-4.72526 0.28119,-1.61135 2.65309,-2.53739 1.46942,-3.87037 -1.32066,-1.48725 -1.81489,3.31123 -4.25109,2.66963 -1.00788,-0.26544 -6.96355,1.22658 -8.20306,-0.10389 -1.79557,-1.92734 0.009,-7.24172 1.07082,-7.17258 z"
     id="path123" />
  <path
     fill="#3e7695"
     d="m 565.83663,613.33167 c 2.251,-1.944 6.012,-4.534 7.609,-6.811 5.072,-7.236 4.359,-13.453 11.991,-18.993 3.591,3.97 2.087,18.88 -2.487,22.105 -3.242,2.286 -10.841,8.335 -14.768,8.102 -1.652,-1.972 -1.313,-2.525 -2.345,-4.403 z"
     id="path124" />
  <path
     fill="#3e7695"
     d="m 620.38063,599.95967 c 2.89,1.411 4.661,2.188 7.239,4.123 -3.477,2.482 -4.758,2.897 -8.687,4.178 0.55,-2.841 1.025,-5.431 1.448,-8.301 z"
     id="path125" />
  <path
     fill="#3e7695"
     d="m 498.09963,650.67367 1.677,-1.08 c 0.7,2.472 1.273,3.796 1.046,6.363 l -0.557,0.046 c -1.798,-2.369 -1.211,-3.295 -2.166,-5.329 z"
     id="path127" />
  <path
     fill="#3e7695"
     d="m 529.85763,661.06867 c 2.312,-0.212 5.504,0.484 7.018,2.345 -0.771,14.74 -27.837,19.974 -39.495,25.295 -2.449,0.38 -4.632,-1.512 -6.871,-2.917 7.42,-9.594 27.833,-17.905 39.348,-24.723 z"
     id="path129" />
  <path
     fill="#3e7695"
     d="m 574.91563,630.51567 0.924,0.422 c 1.675,4.075 -4.538,20.407 -8.199,22.5 l 10e-4,-10e-4 c -1.918,-3.68 -1.244,-3.707 -4.972,-3.26 1.414,-5.322 3.721,-7.247 7.582,-10.92 l -6.445,-3.496 c 4.652,-2.264 5.966,-3.483 11.109,-5.245 z"
     id="path130" />
  <path
     fill="#68a1b5"
     d="m 389.63063,344.30867 c 30.441,-8.707 68.026,-8.41 98.549,-0.318 5.768,1.529 31.787,9.31 34.414,12.848 l -1.055,1.67 c -2.88,3.737 -5.039,7.196 -7.56,11.16 -4.288,2.475 -10.211,3.433 -15.004,5.083 -0.446,3.786 -1,6.078 -1.914,9.801 3.82,6.148 8.222,12.006 12.484,17.862 l 2.291,3.075 c 2.344,3.157 4.41,5.898 6.472,9.24 -11.852,7.101 -38.195,12.853 -50.088,21.665 -2.442,1.81 -6.798,9.164 -9.023,11.334 -5.229,-3.436 -24.421,3.903 -30.461,5.073 -26.335,5.102 -38.452,29.658 -53.133,49.3 -2.281,3.052 -8.06,10.556 -10.009,14.156 l 0.255,0.572 c -11.039,6 -19.625,2.076 -31.605,0.949 -13.399,8.521 -18.146,9.699 -25.816,23.142 -3.006,-2.847 -5.953,-5.757 -8.84,-8.726 -3.195,-2.503 -8.624,-8.77 -11.209,-9.815 1.056,-1.162 1.506,-14.152 4.916,-19.177 11.133,-16.405 21.073,-34.25 32.964,-50.275 1.484,-2 10.122,-14.459 10.384,-15.781 4.873,-3.465 16.753,-15.084 21.692,-19.711 4.63,-4.185 9.246,-8.564 14.394,-12.071 4.408,-4.671 12.443,-7.271 9.648,-14.27 -0.825,-1.163 -1.639,-2.503 -2.413,-3.718 -3.733,-5.11 -6.808,-9.447 -10.329,-14.734 11.103,-9.258 17.416,-14.157 19.996,-28.334 z"
     id="path131" />
  <path
     fill="#3e7695"
     d="m 476.07763,350.65567 c 12.004,0.247 34.975,2.134 45.461,7.853 -2.88,3.737 -5.039,7.196 -7.56,11.16 -4.288,2.475 -10.211,3.433 -15.004,5.083 -0.446,3.786 -1,6.078 -1.914,9.801 3.82,6.148 8.222,12.006 12.484,17.862 l 2.291,3.075 c 2.344,3.157 4.41,5.898 6.472,9.24 -11.852,7.101 -38.195,12.853 -50.088,21.665 -2.442,1.81 -6.798,9.164 -9.023,11.334 -5.229,-3.436 -24.421,3.903 -30.461,5.073 -26.335,5.102 -38.452,29.658 -53.133,49.3 -2.281,3.052 -8.06,10.556 -10.009,14.156 l 0.255,0.572 c -11.039,6 -19.625,2.076 -31.605,0.949 -13.399,8.521 -18.146,9.699 -25.816,23.142 -3.006,-2.847 -5.953,-5.757 -8.84,-8.726 11.224,-20.669 37.744,-32.541 53.499,-49.325 6.967,-7.423 9.437,-21.815 18.624,-28.411 9.473,-6.801 24.788,-5.877 35.781,-4.313 0.85,-1.994 1.797,-3.946 2.839,-5.847 3.695,-6.76 8.511,-13.424 12.718,-19.903 3.421,-5.267 6.966,-10.868 11.123,-15.556 3.521,-3.969 8.849,-7.232 12.308,-11.321 5.41,-6.397 9.815,-14.251 16.746,-19.236 6.58,-3.952 14.732,-4.677 21.926,-6.927 8.418,-2.633 9.879,-5.641 7.212,-13.642 -5.335,-4.471 -9.798,-5.314 -16.286,-7.058 z"
     id="path132" />
  <path
     fill="#1b4e6f"
     d="m 509.54463,402.41467 2.291,3.075 c -1.353,1.707 -1.646,2.286 -3.443,3.407 l -0.839,-0.203 c -0.601,-2.426 0.748,-4.209 1.991,-6.279 z"
     id="path133" />
  <path
     fill="#1b4e6f"
     d="m 479.30963,389.52767 c 1.32,0.165 1.244,0.276 2.245,1.21 l -0.013,1.15 c -1.741,1.928 -7.863,4.989 -10.497,6.754 -4.281,2.868 -6.336,4.573 -10.05,8.167 l -0.8,0.244 c -1.413,-0.496 -0.866,-0.053 -1.606,-1.474 0.805,-5.572 16.009,-13.778 20.721,-16.051 z"
     id="path134" />
  <path
     fill="#1b4e6f"
     d="m 485.65163,400.82867 c 0.916,1.455 0.684,7.893 0.693,9.915 l -7.456,-1.2 c -1.196,-0.545 -0.666,-0.203 -1.607,-0.996 3.69,-3.222 4.807,-3.93 8.37,-7.719 z"
     id="path135" />
  <path
     fill="#1b4e6f"
     d="m 372.72863,405.36467 c 3.136,-0.565 6.25,-1.17 9.378,-1.769 11.087,-2.121 21.99,-6.828 33.113,-8.57 -10.74,8.147 -17.58,12.319 -30.216,17.443 l 0.268,0.614 c 3.746,8.369 11.359,15.191 18.127,21.174 2.026,1.79 4.589,2.227 5.545,4.063 -9.657,7.92 -29.006,-19.892 -37.236,-21.974 -6.175,-1.562 -9.407,1.725 -13.373,1.09 4.63,-4.185 9.246,-8.564 14.394,-12.071 z"
     id="path136" />
  <path
     fill="#1b4e6f"
     d="m 379.96363,387.37667 c 10.712,-9.131 24.238,-14.995 37.183,-20.218 2.386,-0.963 7.048,-3.254 9.437,-2.418 0.441,5.864 -26.793,11.619 -31.801,15.06 -5.337,3.666 -7.874,6.952 -12.406,11.294 -0.825,-1.163 -1.639,-2.503 -2.413,-3.718 z"
     id="path137" />
  <path
     fill="#1b4e6f"
     d="m 434.96263,354.15867 c 1.778,-0.159 3.27,-0.616 4.229,1.075 -1.114,1.832 -1.104,1.397 -3.298,2.592 -1.315,0.383 -1.27,0.271 -2.599,-0.176 l -0.456,-1.069 c 0.568,-1.711 0.352,-1.156 2.124,-2.422 z"
     id="path138" />
  <defs
     id="defs139">
    <linearGradient
       id="gradient_8"
       gradientUnits="userSpaceOnUse"
       x1="649.12994"
       y1="667.06305"
       x2="605.08228"
       y2="400.27164"
       gradientTransform="translate(-56.270374,-43.916335)">
      <stop
         offset="0"
         stop-color="#104264"
         id="stop138" />
      <stop
         offset="1"
         stop-color="#447D9C"
         id="stop139" />
    </linearGradient>
  </defs>
  <path
     fill="url(#gradient_8)"
     d="m 526.88763,358.68567 c 7.112,2.735 13.813,7.156 20.5,10.772 58.118,31.434 98.063,94.829 97.323,161.159 l -0.913,-0.16 c -4.241,-2.547 -17.876,1.115 -22.604,2.343 l -3.284,4.926 c -2.851,5.382 -5.307,9.005 -6.005,15.107 -0.5,8.721 3.684,18.161 7.85,25.656 1.86,1.247 4.796,3.346 6.702,4.297 -0.558,3.724 -1.577,9.219 -3.769,12.281 -3.844,-1.48 -12.188,2.314 -16.442,3.422 -4.474,-14.536 -11.144,-35.296 -17.347,-49.191 -4.422,9.15 0.447,17.312 3.896,26.174 -6.356,4.765 -15.634,10.041 -18.15,17.59 -5.191,15.577 -20.893,21.92 -34.822,29.682 -10e-4,3.653 0.101,7.848 -0.051,11.455 -2.702,-1.064 -6.835,-2.54 -9.363,-3.713 -2.104,-1.009 -4.433,-1.938 -6.597,-2.85 0.142,-4.867 -0.225,-9.684 -0.512,-14.543 -0.218,-1.515 -0.319,-3.026 -0.445,-4.551 -0.261,-3.295 -0.683,-5.175 -1.374,-8.398 33.559,-18.975 31.009,-21.08 52.039,-52.528 0.8,-1.452 3.118,-4.56 4.162,-6.049 l 4.499,-6.417 c -0.765,-3.66 -1.992,-6.994 -3.195,-10.529 l 1.278,-0.354 c 0.288,-0.004 0.575,-0.009 0.862,-0.013 1.251,-2.037 2.186,-3.703 3.742,-5.537 5.973,-8.057 1.914,-17.075 2.739,-25.978 0.299,-3.218 2.038,-8.162 2.935,-11.432 1.169,-4.258 1.598,-7.232 2.008,-11.666 2.75,0.323 5.495,0.674 8.237,1.055 3.919,-6.791 5.41,-14.193 11.095,-19.134 l 0.705,-0.605 c 0.138,-2.244 -1.338,-3.913 -2.717,-5.69 -2.533,-3.063 -5.818,-10.323 -8.968,-11.261 -1.12,-2.714 -3.262,-7.741 -6.382,-8.409 1.053,3.806 2.567,9.552 3.028,13.465 0.256,3.414 -6.529,16.235 -9.014,18.922 l -0.516,4.971 -18.789,-3.091 c -3.069,-3.156 -5.724,-5.688 -8.993,-8.639 -16.948,-16.131 -29.002,-32.082 -43.14,-50.704 l -4.792,-6.35 c -2.3,-2.281 -11.174,-12.092 -7.541,-15.78 2.003,-2.034 8.522,-2.466 10.717,-5.05 5.621,-5.478 4.69,-10.473 11.408,-14.655 z"
     id="path139"
     style="fill:url(#gradient_8)" />
  <path
     fill="#1b4e6f"
     d="m 524.40163,375.19367 c 9.905,2.711 11.483,7.443 19.356,13.064 4.595,2.879 10.232,4.558 14.844,7.349 5.699,3.448 10.995,7.94 16.048,12.284 5.954,5.118 12.242,10.109 17.665,15.782 0.964,1.008 0.873,1.253 2.205,1.924 1.053,3.806 2.567,9.552 3.028,13.465 0.256,3.414 -6.529,16.235 -9.014,18.922 l -0.516,4.971 -18.789,-3.091 c -3.069,-3.156 -5.724,-5.688 -8.993,-8.639 1.961,-6.54 2.816,-13.361 2.529,-20.182 5.285,9.733 8.376,15.164 13.175,25.401 -0.338,-16.271 -7.264,-36.455 -14.238,-50.974 -3.249,1.736 -11.952,5.544 -15.413,5.798 l -0.519,-0.671 c 0.2,-0.834 0.355,-1.399 0.616,-2.231 l 0.251,-0.785 c -1.053,-2.929 -5.252,-9.014 -7.055,-11.84 1.112,-0.832 2.665,-1.794 3.858,-2.578 -7.366,-6.486 -12.379,-10.489 -19.038,-17.969 z"
     id="path140" />
  <path
     fill="#235576"
     d="m 597.54763,439.06167 c 0.256,3.414 -6.529,16.235 -9.014,18.922 0.739,-4.468 5.231,-9.97 5.958,-14.79 0.394,-2.608 0.997,-2.869 3.056,-4.132 z"
     id="path141" />
  <path
     fill="#3e7695"
     d="m 614.30763,520.86567 c 1.155,4.745 1.793,13.282 3.602,16.86 -2.851,5.382 -5.307,9.005 -6.005,15.107 -5.988,-6.922 -0.035,-24.454 2.403,-31.967 z"
     id="path142" />
  <path
     fill="#3e7695"
     d="m 577.68163,541.56667 c 0.745,3.462 1.04,10.372 -0.728,13.614 l -0.622,-0.061 c -1.491,-2.876 -1.467,-5.19 -2.812,-7.504 0.8,-1.452 3.118,-4.56 4.162,-6.049 z"
     id="path143" />
  <path
     fill="#386e8d"
     d="m 512.30363,394.17067 c 1.252,-1.679 0.484,-1.325 2.094,-1.727 2.525,1.773 5.201,5.254 2.698,8.077 z"
     id="path144" />
  <path
     fill="#3e7695"
     d="m 529.04763,603.33967 c -1.077,2.119 -4.146,8.355 -5.748,9.753 -0.218,-1.515 -0.319,-3.026 -0.445,-4.551 l 0.941,0.205 c 1.974,-1.315 3.668,-3.563 5.252,-5.407 z"
     id="path145" />
  <path
     fill="#3e7695"
     d="m 558.95063,579.52767 c -1.887,13.011 -11.237,26.531 -18.416,37.62 -0.825,-2.297 -0.795,-2.61 -2.636,-4.032 6.891,-13.203 12.523,-21.306 21.052,-33.588 z"
     id="path146" />
  <path
     fill="#3e7695"
     d="m 594.41663,491.16867 c 2.216,-0.116 2.646,-0.195 4.776,0.238 3.654,6.007 3.398,22.464 2.345,29.301 -1.935,-2.257 0.148,-5.193 -2.579,-8.054 -1.168,-0.286 -1.999,-0.505 -3.139,-0.883 -1.672,-2.679 -1.54,-16.951 -1.403,-20.602 z"
     id="path147" />
  <path
     fill="#3e7695"
     d="m 537.89863,613.11567 c 1.841,1.422 1.811,1.735 2.636,4.032 -2.919,4.372 -3.951,6.499 -6.126,11.313 -0.133,-7.331 0.527,-8.87 3.49,-15.345 z"
     id="path148" />
  <path
     fill="#68a1b5"
     d="m 319.27763,369.67967 c 12.97,-7.833 46.585,-20.741 61.445,-23.39 l -0.791,7.914 c -4.462,5.891 -12.29,10.678 -16.203,16.185 -4.109,5.782 6.724,18.173 10.498,23.154 -8.888,6.084 -21.094,18.06 -29.442,25.727 -2.54,2.39 -5.023,4.839 -7.447,7.346 -1.612,1.631 -3.796,3.981 -5.518,5.378 1.616,2.699 2.032,3.562 4.823,5.153 -0.262,1.322 -8.9,13.781 -10.384,15.781 -11.891,16.025 -21.831,33.87 -32.964,50.275 -3.41,5.025 -3.86,18.015 -4.916,19.177 -3.31,-0.872 -8.821,-1.022 -12.394,-1.244 -7.151,-0.044 -14.716,-0.48 -21.977,-0.612 -2.011,-3.766 -3.746,-7.547 -5.549,-11.41 l -2.412,-5.087 c -0.977,-1.218 -1.814,-2.763 -2.62,-4.119 -6.939,-2.714 -11.901,-3.89 -19.091,-5.444 10.178,-42.396 35.666,-78.673 68.756,-106.656 7.474,-6.32 15.639,-11.586 23.793,-16.975 -1.392,5.299 -4.469,22.987 -4.946,28.355 2.024,4.16 3.996,7.844 6.215,11.879 -7.826,5.078 -15.957,9.741 -24.031,14.421 -2.071,4.618 -3.642,9.132 -5.896,13.951 -3.833,0.779 -6.232,1.044 -10.152,1.387 l -4.439,0.888 c -0.695,0.457 -0.463,0.336 -0.919,1.173 l 0.424,0.859 c 3.955,1.078 13.53,0.007 17.979,-0.333 3.569,-6.365 3.835,-12.193 10.595,-16.299 7.945,-4.827 16.487,-9.036 24.263,-14.092 -1.13,-3.262 -6.541,-12.094 -8.6,-16.383 1.127,-10.177 2.056,-16.65 1.9,-26.959 z"
     id="path149" />
  <path
     fill="#1b4e6f"
     d="m 282.20363,468.95567 c 6.342,-14.387 15.381,-27.426 26.629,-38.412 -14.233,31.029 -25.903,28.209 -20.962,68.173 6.099,-10.215 13.518,-21.061 19.892,-31.162 4.927,-7.808 17.351,-30.067 24.057,-35.561 1.616,2.699 2.032,3.562 4.823,5.153 -0.262,1.322 -8.9,13.781 -10.384,15.781 -11.891,16.025 -21.831,33.87 -32.964,50.275 -3.41,5.025 -3.86,18.015 -4.916,19.177 -3.31,-0.872 -8.821,-1.022 -12.394,-1.244 0.358,-3.875 2.45,-7.899 2.455,-11.911 0.009,-6.735 -3.745,-13.482 -4.74,-19.963 -2.208,-14.374 -1.653,-30.199 -0.364,-44.656 l 5.268,-0.026 c 0.938,9.08 1.698,15.46 3.6,24.376 z"
     id="path150" />
  <path
     fill="#1b4e6f"
     d="m 246.04663,504.02667 c 2.039,-6.352 6.062,-14.142 9.87,-19.627 -1.449,5.535 -5.045,20.668 -7.458,24.714 z"
     id="path151" />
  <path
     fill="#1b4e6f"
     d="m 275.70463,430.98967 1.558,0.43 c 0.231,2.442 0.813,7.13 0.812,9.406 l -4.439,0.888 z"
     id="path152" />
  <path
     fill="#3e7695"
     d="m 337.33763,426.61567 0.21,-1.593 c 1.996,-2.561 3.463,-4.251 6.192,-6.026 l 1.045,0.273 c -2.54,2.39 -5.023,4.839 -7.447,7.346 z"
     id="path153" />
  <path
     fill="#235576"
     d="m 275.70463,430.98967 c 0.339,-1.2 0.5,-2.796 1.286,-3.272 0.289,1.729 0.31,1.952 0.272,3.702 z"
     id="path154" />
  <path
     fill="#68a1b5"
     d="m 683.96129,537.31735 c 4.14886,6.45451 22.81941,-11.05195 27.48705,-4.80843 3.7137,-0.66494 7.45481,-0.25515 11.20242,-0.1526 6.26821,-0.63006 11.55905,-0.12428 16.69674,2.88443 6.87767,4.02735 24.39386,8.29692 23.6066,14.20264 6.38025,1.68331 40.85026,4.67598 37.07535,11.63337 -4.23431,7.80456 -40.58481,9.74625 -49.27851,8.99112 2.12949,4.20118 -1.12679,3.25244 -9.60389,8.30789 -12.79559,4.32213 -21.08724,9.00965 -27.94127,6.61291 -1.20555,-0.42319 -2.40596,-0.85503 -3.60019,-1.29709 -12.58192,2.7754 -16.25959,0.5102 -25.69465,-6.20541 -8.56009,-2.37551 -15.40899,-3.66237 -23.91152,-5.68076 -3.52209,-0.61039 -14.11609,-3.49089 -17.60425,-4.54807 -0.741,2.93241 -1.556,5.85381 -2.445,8.76263 -4.74408,-1.80287 -11.04415,-4.64247 -15.45318,-6.77491 -4.86329,-13.32406 -9.56008,-13.01572 -0.47071,-26.9368 5.51591,-0.53489 16.09963,-1.36395 20.95162,-2.83094 0.52312,1.38833 0.36073,2.36763 0.31243,3.80316 l 0.40391,0.0118 c 2.56216,0.63557 15.71729,-1.70611 19.12222,-2.25751 6.5046,-1.01785 13.19419,-1.51891 19.14483,-3.71743 z"
     id="path155"
     style="stroke-width:0.89912" />
  <path
     fill="#1b4e6f"
     d="m 643.94163,534.78467 c 0.509,1.765 0.351,3.01 0.304,4.835 -4.866,2.271 -12.897,2.219 -17.133,5.297 l -0.138,0.848 c 3.486,3.654 23.762,0.286 29.286,-0.502 19.531,-2.788 22.10091,1.40013 41.50991,4.96313 -14.619,1.454 -62.10891,-1.09413 -70.69591,2.67787 l -0.699,0.892 c 2.818,5.915 32.116,7.861 38.898,9.76 13.584,3.805 30.633,7.354 43.381,12.948 -11.265,-0.893 -16.234,-1.067 -27.479,-3.418 -16.423,-3.434 -39.547,-12.038 -55.705,-11.489 7.402,7.52 8.702,5.166 15.958,8.505 -0.721,3.728 -1.514,7.442 -2.379,11.14 -4.616,-2.292 -10.746,-5.902 -15.036,-8.613 -4.732,-16.939 -9.302,-16.547 -0.458,-34.245 5.367,-0.68 15.665,-1.734 20.386,-3.599 z"
     id="path156" />
  <path
     fill="#1b4e6f"
     d="m 687.91063,558.24467 c 11.665,-1.001 41.45222,-3.14777 51.68522,2.90723 -10.431,-0.131 -42.33722,1.56777 -51.68522,-2.90723 z"
     id="path158" />
  <path
     fill="#235576"
     d="m 700.6559,542.7818 c 3.041,-0.431 38.63253,-1.56407 44.7403,6.17448 -3.94,0.651 -40.9603,-4.98448 -44.7403,-6.17448 z"
     id="path159" />
  <path
     fill="#1b4e6f"
     d="m 356.57363,525.71067 c 7.06,-0.05 20.946,-10.273 29.724,-7.532 l 2.362,0.888 -4.38,7.383 c -6.16,11.37 -13.475,22.866 -20.517,33.761 l -0.166,0.364 c -2.755,5.829 -4.718,12.671 -6.705,18.859 -2.165,5.798 -3.559,9.262 -4.483,15.425 -1.297,7.863 -4.758,25.408 -5.382,32.764 -0.465,2.685 -0.832,5.203 -1.674,7.806 l -5.548,0.281 c -9.674,0.988 -23.644,0.799 -33.671,0.914 -3.743,3.117 -8.89,7.66 -12.821,10.271 -2.224,1.914 -4.428,3.727 -6.465,5.841 -1.926,-4.759 -1.978,-10.556 -2.117,-15.615 -0.922,-33.527 20.601,-28.254 23.516,-46.899 -2.027,-4.305 -11.243,-17.25 -14.436,-20.805 l 7.205,-9.349 c 0.977,1.006 2.345,3.212 3.168,4.447 16.767,-3.134 14.131,-5.262 25.876,-15.791 8.443,-7.57 17.956,-15.104 26.514,-23.013 z"
     id="path160" />
  <path
     fill="#3e7695"
     d="m 376.35463,525.58167 c 2.383,0.417 5.467,0.629 7.925,0.868 -6.16,11.37 -13.475,22.866 -20.517,33.761 l -0.166,0.364 c -2.755,5.829 -4.718,12.671 -6.705,18.859 -8.964,-6.136 -14.34,-3.934 -21.975,-14.348 5.736,-11.579 30.112,-34.131 41.438,-39.504 z"
     id="path161" />
  <path
     fill="#386e8d"
     d="m 363.59663,560.57467 c -2.095,0.099 -1.978,0.057 -3.094,-1.465 -0.148,-2.222 -0.394,-1.244 0.565,-3.083 l 0.654,0.246 c 0.531,1.362 0.695,1.848 1.488,3.089 l 0.553,0.849 z"
     id="path162" />
  <path
     fill="#3e7695"
     d="m 293.31263,646.89467 c -0.362,-11.324 -0.365,-26.273 9.777,-33.964 22.093,-16.754 27.054,10.836 36.715,22.779 -9.674,0.988 -23.644,0.799 -33.671,0.914 -3.743,3.117 -8.89,7.66 -12.821,10.271 z"
     id="path163" />
  <path
     fill="#3e7695"
     d="m 347.02663,627.62267 c -6.619,-11.423 -14.219,-21.486 -21.714,-32.217 -3.786,-5.422 -11.778,-16.862 -4.257,-22.344 12.332,-8.989 21.352,20.582 31.353,21.797 -1.297,7.863 -4.758,25.408 -5.382,32.764 z"
     id="path164" />
  <path
     fill="#3e7695"
     d="m 287.16063,578.79167 c 2.289,-3.472 4.09,-6.116 6.65,-9.375 3.193,3.555 12.409,16.5 14.436,20.805 -2.915,18.645 -24.438,13.372 -23.516,46.899 0.139,5.059 0.191,10.856 2.117,15.615 -5.639,6.87 -4.676,13.006 -7.949,21.414 -6.558,-5.494 -14.096,-12.623 -19.166,-19.412 1.695,-14.384 5.728,-30.667 7.901,-45.417 7.31,-4.504 18.285,-9.258 26.315,-13.668 -1.425,-4.574 -4.805,-12.103 -6.788,-16.861 z"
     id="path165" />
  <defs
     id="defs166">
    <linearGradient
       id="gradient_9"
       gradientUnits="userSpaceOnUse"
       x1="436.26624"
       y1="357.0809"
       x2="442.94211"
       y2="386.27686"
       gradientTransform="translate(-56.270374,-43.916335)">
      <stop
         offset="0"
         stop-color="#C4A172"
         id="stop165" />
      <stop
         offset="1"
         stop-color="#ADC3B6"
         id="stop166" />
    </linearGradient>
  </defs>
  <path
     fill="url(#gradient_9)"
     d="m 351.55863,322.61467 c 6.154,-3.484 8.356,-3.948 14.789,-6.36 -1.148,-0.881 -3.493,-0.646 -5.467,-1.425 h 4.173 c 23.461,6.183 84.24,-2.135 100.303,11.571 0.529,0.452 0.265,0.264 0.961,0.613 -9.487,-0.896 -18.53,-2.458 -28.098,-3.15 -31.853,-2.302 -60.202,3.144 -90.095,14.003 -13.227,4.804 -26.192,9.633 -38.119,17.549 -0.816,-1.352 -1.629,-3.061 -2.358,-4.497 1.274,-1.67 3.047,-1.477 5.116,-3.721 l -1.28,-0.335 0.013,-0.52 c 1.641,-1.71 2.433,-2.439 4.298,-3.898 l -2.513,-0.683 c 3.511,-2.95 4.302,-1.142 6.717,-3.575 -2.034,-0.821 -4.278,-1.534 -6.368,-2.243 5.246,-5.196 9.008,-2.803 17.169,-7.84 5.088,-1.328 10.5,-6.257 15.857,-7.421 1.493,-0.324 3.673,1.04 4.902,1.932 z"
     id="path166"
     style="fill:url(#gradient_9)" />
  <defs
     id="defs168">
    <linearGradient
       id="gradient_10"
       gradientUnits="userSpaceOnUse"
       x1="381.09555"
       y1="376.55646"
       x2="384.47525"
       y2="384.0112"
       gradientTransform="translate(-56.270374,-43.916335)">
      <stop
         offset="0"
         stop-color="#C69F70"
         id="stop167" />
      <stop
         offset="1"
         stop-color="#BEAE88"
         id="stop168" />
    </linearGradient>
  </defs>
  <path
     fill="url(#gradient_10)"
     d="m 330.79963,328.10367 c 5.088,-1.328 10.5,-6.257 15.857,-7.421 1.493,-0.324 3.673,1.04 4.902,1.932 1.099,0.301 3.702,0.773 4.169,1.49 -3.194,0.999 -7.623,-3.806 -10.449,-1.786 -2.707,1.934 -5.2,3.978 -7.99,5.786 -0.48,0.937 -0.724,1.055 -0.737,1.953 3.809,1.117 9.274,-2.372 11.619,-1.744 -1.551,1.93 -6.029,1.657 -7.807,4.008 -2.452,3.244 -7.921,5.23 -9.739,8.659 l -1.765,0.863 c -1.948,-1.515 -6.371,-3.677 -8.861,-3.657 -2.034,-0.821 -4.278,-1.534 -6.368,-2.243 5.246,-5.196 9.008,-2.803 17.169,-7.84 z"
     id="path168"
     style="fill:url(#gradient_10)" />
  <path
     fill="#c0a179"
     d="m 336.55163,330.05767 c -1.506,1.079 -8.526,3.078 -10.52,3.486 1.64,-1.287 8.944,-4.355 11.257,-5.439 -0.48,0.937 -0.724,1.055 -0.737,1.953 z"
     id="path169" />
  <path
     fill="#bf986f"
     d="m 319.99863,338.18667 c 2.49,-0.02 6.913,2.142 8.861,3.657 -5.151,1.072 -7.839,1.102 -13.065,0.601 l -2.513,-0.683 c 3.511,-2.95 4.302,-1.142 6.717,-3.575 z"
     id="path170" />
  <path
     fill="#3e7695"
     d="m 335.49363,523.76167 c 6.745,0.381 14.017,1.487 21.08,1.949 -8.558,7.909 -18.071,15.443 -26.514,23.013 -11.745,10.529 -9.109,12.657 -25.876,15.791 -0.823,-1.235 -2.191,-3.441 -3.168,-4.447 0.307,-0.606 6.522,-9.105 7.526,-10.612 2.911,2.429 6.083,5.368 9.862,5.246 2.715,-2.849 -4.046,-8.064 -6.251,-9.838 8.105,-12.081 10.196,-13.83 23.341,-21.102 z"
     id="path171" />
  <path
     fill="#bf986f"
     d="m 295.38363,346.59767 c 1.679,0.297 2.712,0.518 4.354,0.974 4.566,2.151 7.095,5.122 11.746,-0.709 l 1.28,0.335 c -2.069,2.244 -3.842,2.051 -5.116,3.721 0.729,1.436 1.542,3.145 2.358,4.497 -2.807,1.692 -7.005,4.406 -9.811,5.831 l -3.454,-0.876 c -1.817,-0.338 -2.173,-0.566 -3.794,-1.332 -3.019,3.704 -11.45,10.761 -12.257,12.453 l 1.205,2.501 c -2.727,1.916 -5.419,3.881 -8.074,5.894 -1.654,-2.379 -3.635,-6.014 -4.859,-8.624 -0.979,-1.573 -1.293,-2.276 -2.039,-3.989 2.498,-1.313 5.905,-3.688 7.797,-5.768 0.466,-2.658 -0.775,-1.832 -1.147,-4.923 1.256,-1.497 7.467,-6.796 9.064,-7.141 l 0.34,0.801 c 0.38,0.849 0.391,0.697 1.072,1.413 2.383,0.397 10.764,-2.763 11.335,-5.058 z"
     id="path172" />
  <path
     fill="#c0a179"
     d="m 274.39963,367.50367 c 1.197,-0.595 2.171,-1.328 3.281,-2.081 0.814,2.009 1.674,4.373 3.009,6.069 l 1.205,2.501 c -2.727,1.916 -5.419,3.881 -8.074,5.894 -1.654,-2.379 -3.635,-6.014 -4.859,-8.624 1.61,-0.988 3.83,-2.641 5.438,-3.759 z"
     id="path173" />
  <path
     fill="#c0ac87"
     d="m 288.28863,356.83267 c 1.042,0.463 3.848,1.614 4.658,2.206 -3.019,3.704 -11.45,10.761 -12.257,12.453 -1.335,-1.696 -2.195,-4.06 -3.009,-6.069 1.719,-3.279 8.316,-4.655 10.608,-8.59 z"
     id="path174" />
  <path
     fill="#c0a179"
     d="m 285.12663,353.92467 c 1.036,0.989 2.09,1.958 3.162,2.908 -2.292,3.935 -8.889,5.311 -10.608,8.59 -1.11,0.753 -2.084,1.486 -3.281,2.081 5.507,-6.838 -2.565,-5.221 10.727,-13.579 z"
     id="path175" />
  <path
     fill="#afab98"
     d="m 296.74063,360.37067 c 2.781,-2.036 4.86,-4.432 7.793,-6.188 1.866,-1.118 0.73,0.626 2.846,-0.805 -0.217,-1.17 -0.189,-1.361 0.268,-2.459 0.729,1.436 1.542,3.145 2.358,4.497 -2.807,1.692 -7.005,4.406 -9.811,5.831 z"
     id="path176" />
  <path
     fill="#3e7695"
     d="m 494.48863,717.76067 c 26.33459,-9.71373 13.50551,-7.02318 30.1595,-11.45261 9.76102,-0.65004 24.2625,-8.56139 25.4775,-6.93139 -6.2,4.945 -46.709,25.848 -53.467,25.118 z"
     id="path177" />
  <path
     fill="#afab98"
     d="m 566.21563,361.56967 c 0.694,0.181 10.649,7.212 12.162,8.247 8.939,6.113 16.787,14.244 25.105,21.174 1.514,1.273 9.784,14.615 10.377,16.653 l -3.109,-0.86 c -2.067,-1.764 -8.731,-9.656 -11.58,-12.408 -11.283,-10.901 -22.564,-21.743 -35.822,-30.238 z"
     id="path178" />
  <path
     fill="#386e8d"
     d="m 464.30063,724.55267 c 7.61,-0.537 16.732,-2.98 24.124,-5.027 0.685,2.103 1.698,4.892 2.156,6.986 -2.315,1.97 -23.994,5.229 -28.165,5.83 0.586,-2.606 1.215,-5.203 1.885,-7.789 z"
     id="path179" />
  <path
     fill="#3e7695"
     d="m 626.45663,582.78567 c 4.117,1.052 7.981,0.481 12.233,0.198 -1.634,5.893 -3.928,14.739 -6.278,20.218 l -9.724,-8.135 c 2.192,-3.062 3.211,-8.557 3.769,-12.281 z"
     id="path180" />
  <path
     fill="#1b4e6f"
     d="m 600.90163,434.00567 c 3.15,0.938 6.435,8.198 8.968,11.261 -4.794,4.001 -8.23,9.625 -9.943,15.656 -1.055,3.711 -2.219,4.598 -6.051,2.921 -3.814,-5.688 10.87,-14.342 7.026,-29.838 z"
     id="path181" />
  <path
     fill="#afab98"
     d="m 618.60763,413.76867 c 1.146,0.051 3.127,0.197 4.204,0.166 1.286,0.582 0.878,0.096 1.349,1 3.979,7.639 10.586,14.767 13.362,23.029 l -0.342,1.095 c -1.032,-0.863 -4.947,-3.176 -6.287,-4.012 -4.487,-6.813 -9.066,-13.566 -13.736,-20.255 z"
     id="path182" />
  <path
     fill="#b3b8a4"
     d="m 292.94663,359.03867 c 1.621,0.766 1.977,0.994 3.794,1.332 l 3.454,0.876 c -6.117,4.103 -12.5,8.241 -18.3,12.746 l -1.205,-2.501 c 0.807,-1.692 9.238,-8.749 12.257,-12.453 z"
     id="path183" />
  <path
     fill="#b3b8a4"
     d="m 551.70463,352.50367 c 1.978,-0.072 2.692,-0.083 3.76,2.054 2.057,4.119 8.984,2.729 10.938,6.482 l -0.187,0.53 -2.867,2.568 c -5.338,-3.331 -11.233,-6.671 -16.684,-9.867 1.169,-0.757 3.613,-1.344 5.04,-1.767 z"
     id="path184" />
  <path
     fill="#afab98"
     d="m 641.29163,446.55267 c 1.294,1.637 2.345,2.732 3.084,4.696 1.206,2.485 1.496,2.971 3.991,4.385 -0.655,1.415 -1.995,1.933 -3.403,2.769 -1.42838,2.12851 -2.4552,-2.36195 -4.62,-6.76 0.048,-2.429 -0.111,-3.008 0.948,-5.09 z"
     id="path185" />
  <path
     fill="#235576"
     d="m 573.14663,523.26667 c 1.603,3.491 2.865,6.278 4.156,9.882 l -4.171,5.985 c -0.409,-2.912 -1.192,-10.249 -2.258,-12.58 0.238,-1.575 1.113,-2.142 2.273,-3.287 z"
     id="path186" />
  <path
     fill="#b3b8a4"
     d="m 630.89363,435.04667 c 1.34,0.836 5.255,3.149 6.287,4.012 1.333,3.26 2.76,4.712 4.111,7.494 -1.059,2.082 -0.9,2.661 -0.948,5.09 -3.194,-5.025 -5.869,-11.002 -9.45,-16.596 z"
     id="path187" />
  <path
     fill="#afab98"
     d="m 540.66863,348.32867 2.434,0.694 2.595,-0.383 c 2.378,1.013 3.174,3.493 6.007,3.864 -1.427,0.423 -3.871,1.01 -5.04,1.767 l -8.902,-4.483 c 1.261,-0.925 1.453,-0.881 2.906,-1.459 z"
     id="path188" />
  <path
     fill="#b3b8a4"
     d="m 610.75063,406.78367 3.109,0.86 c 1.48,0.117 2.596,0.234 4.096,0.158 0.292,1.98 0.509,3.971 0.652,5.967 l -1.45,1.023 c -2.291,-2.696 -4.256,-5.195 -6.407,-8.008 z"
     id="path189" />
  <path
     fill="#386e8d"
     d="m 644.71063,530.61667 -0.072,9.018 -0.393,-0.015 c 0.047,-1.825 0.205,-3.07 -0.304,-4.835 -0.26,-1.383 -0.161,-2.905 -0.144,-4.328 z"
     id="path190" />
  <path
     fill="#3e7695"
     d="m 222.85163,500.60867 c 4.869,1.761 10.266,3.239 15.262,4.713 2.024,3.148 4.289,7.388 6.17,10.727 l 0.544,2.024 c 1.921,3.212 3.656,6.595 5.405,9.908 3.427,0.167 6.888,0.282 10.254,0.999 7.781,0.226 19.871,0.274 27.498,1.147 1.186,1.27 4.11,4.575 5.262,5.624 4.059,2.915 7.809,6.875 11.411,10.402 -1.591,2.186 -3.625,5.185 -5.412,7.119 l -3.238,4.36 c -1.75,-1.023 -3.494,-2.207 -5.195,-3.321 -0.05,-3.347 0.937,-12.831 -1.347,-15.202 -1.799,1.434 -2.776,11.467 -3.223,14.378 0.052,3.079 -0.336,3.244 2.352,5.086 1.854,1.32 3.053,1.66 3.654,3.487 -0.659,1.332 -0.816,1.499 -1.739,2.686 -3.472,4.649 -6.835,8.941 -9.762,13.965 l 5.679,13.88 c -5.028,2.707 -20.53,10.329 -23.964,13.038 -2.349,14.337 -4.191,31.528 -5.357,45.964 -1.667,-2.248 -3.887,-5.03 -5.209,-7.426 -8.145,-10.189 -14.732,-25.359 -19.601,-37.53 -13.823,-34.55 -17.247,-69.528 -9.444,-106.028 z"
     id="path191" />
  <path
     fill="#68a1b5"
     d="m 222.85163,500.60867 c 4.869,1.761 10.266,3.239 15.262,4.713 2.024,3.148 4.289,7.388 6.17,10.727 l 0.544,2.024 c 1.921,3.212 3.656,6.595 5.405,9.908 3.427,0.167 6.888,0.282 10.254,0.999 -11.131,5.75 -18.11,16.883 -22.126,28.509 -2.117,6.129 -2.2,13.35 -2.289,19.78 0.186,12.51 1.449,23.462 5.495,35.343 2.559,7.513 9.829,23.997 10.33,31.555 -8.145,-10.189 -14.732,-25.359 -19.601,-37.53 -13.823,-34.55 -17.247,-69.528 -9.444,-106.028 z"
     id="path192" />
  <path
     fill="#235576"
     d="m 244.28363,516.04867 0.544,2.024 c -1.132,3.339 -2.345,6.65 -3.639,9.93 0.66,-4.442 1.013,-7.902 3.095,-11.954 z"
     id="path193" />
  <path
     fill="#1b4e6f"
     d="m 260.48663,528.97967 c 7.781,0.226 19.871,0.274 27.498,1.147 1.186,1.27 4.11,4.575 5.262,5.624 4.059,2.915 7.809,6.875 11.411,10.402 -1.591,2.186 -3.625,5.185 -5.412,7.119 l -3.238,4.36 c -1.75,-1.023 -3.494,-2.207 -5.195,-3.321 -0.05,-3.347 0.937,-12.831 -1.347,-15.202 -1.799,1.434 -2.776,11.467 -3.223,14.378 -1.65,-0.463 -6.436,-11.06 -9.59,-13.159 -3.644,-2.425 -3.207,-2.271 -8.094,-1.879 -19.6,5.371 -24.686,21.165 -30.055,38.712 l -2.432,0.108 c 0.089,-6.43 0.172,-13.651 2.289,-19.78 4.016,-11.626 10.995,-22.759 22.126,-28.509 z"
     id="path194" />
  <path
     fill="#3e7695"
     d="m 293.24663,535.75067 c 4.059,2.915 7.809,6.875 11.411,10.402 -1.591,2.186 -3.625,5.185 -5.412,7.119 -1.993,-4.957 -5.259,-12.519 -5.999,-17.521 z"
     id="path195" />
  <path
     fill="#68a1b5"
     d="m 238.50363,577.16067 c 5.369,-17.547 10.455,-33.341 30.055,-38.712 -3.857,12.965 -10.092,19.856 -14.213,32.366 -1.863,5.657 -0.656,18.766 -2.989,23.098 -6.387,2.253 -11.45,-12.119 -12.853,-16.752 z"
     id="path196" />
  <path
     fill="#235576"
     d="m 288.59463,558.57267 c 1.854,1.32 3.053,1.66 3.654,3.487 -0.659,1.332 -0.816,1.499 -1.739,2.686 -2.282,-2.397 -2.474,-2.906 -1.915,-6.173 z"
     id="path197" />
  <path
     fill="#c48857"
     d="m 636.36763,419.68467 2.052,1.901 c 5.472,4.939 10.135,8.441 14.89,14.17 2.23,0.611 1.414,-0.009 2.645,1.77 l -0.093,1.152 c -0.96,0.669 -1.08,0.768 -2.148,1.224 l -0.187,0.464 c 1.429,1.143 1.3,1.139 3.085,1.452 l 0.228,-1.256 0.727,0.081 c 0.391,1.593 0.283,0.996 -0.02,2.748 1.276,1.51 2.668,1.796 4.545,2.51 -2.51,2.218 -5.817,4.299 -8.639,6.19 -1.637,1.113 -3.551,2.337 -5.086,3.543 -2.495,-1.414 -2.785,-1.9 -3.991,-4.385 -0.22,-4.324 -2.095,-3.633 1.446,-6.944 -2.576,-3.056 -3.535,-2.063 -3.582,-6.284 2.521,-3.5 -4.05,-14.94 -5.872,-18.336 z"
     id="path198" />
  <path
     fill="#c0a179"
     d="m 636.36763,419.68467 2.052,1.901 c 0.724,2.401 6.722,14.514 8.212,15.824 2.83,0.567 4.617,0.44 7.477,0.421 -2.332,2.08 -4.686,4.134 -7.063,6.163 l -1.224,0.311 c -2.576,-3.056 -3.535,-2.063 -3.582,-6.284 2.521,-3.5 -4.05,-14.94 -5.872,-18.336 z"
     id="path199" />
  <path
     fill="#bf986f"
     d="m 645.82163,444.30467 1.224,-0.311 c 2.228,4.63 2.133,5.303 6.407,8.097 -1.637,1.113 -3.551,2.337 -5.086,3.543 -2.495,-1.414 -2.785,-1.9 -3.991,-4.385 -0.22,-4.324 -2.095,-3.633 1.446,-6.944 z"
     id="path200" />
  <path
     fill="#c0ac87"
     d="m 637.52263,437.96367 c 1.8,-0.055 2.929,-0.079 4.717,0.057 0.047,4.221 1.006,3.228 3.582,6.284 -3.541,3.311 -1.666,2.62 -1.446,6.944 -0.739,-1.964 -1.79,-3.059 -3.084,-4.696 -1.351,-2.782 -2.778,-4.234 -4.111,-7.494 z"
     id="path201" />
  <text
     xml:space="preserve"
     style="font-size:266.667px;text-align:start;writing-mode:lr-tb;direction:ltr;text-anchor:start;fill:#1b4e6f;fill-opacity:1;stroke:#8ee2f2;stroke-width:4.7811;stroke-linecap:butt;stroke-dasharray:none;stroke-dashoffset:0;stroke-opacity:1;filter:url(#filter91)"
     x="-58.801941"
     y="415.2959"
     id="text201"
     transform="rotate(-14.284701,33.79506,-41.798051)"><tspan
       id="tspan201"
       x="-58.801941"
       y="415.2959"
       style="font-style:normal;font-variant:normal;font-weight:normal;font-stretch:normal;font-size:266.667px;font-family:'Century Gothic';-inkscape-font-specification:'Century Gothic';fill:#1b4e6f;fill-opacity:1;stroke:#8ee2f2;stroke-width:4.7811;stroke-linecap:butt;stroke-dasharray:none;stroke-dashoffset:0;stroke-opacity:1">TidalPy</tspan></text>
  <metadata
     id="metadata201">
    <rdf:RDF>
      <cc:Work
         rdf:about="">
        <dc:title>TidalPy</dc:title>
        <dc:date>2025-11-28</dc:date>
        <dc:creator>
          <cc:Agent>
            <dc:title>Ruhul Amin</dc:title>
          </cc:Agent>
        </dc:creator>
        <dc:rights>
          <cc:Agent>
            <dc:title>Free Use</dc:title>
          </cc:Agent>
        </dc:rights>
        <dc:subject>
          <rdf:Bag>
            <rdf:li>TidalPy</rdf:li>
          </rdf:Bag>
        </dc:subject>
        <cc:license
           rdf:resource="http://creativecommons.org/licenses/by-sa/4.0/" />
      </cc:Work>
      <cc:License
         rdf:about="http://creativecommons.org/licenses/by-sa/4.0/">
        <cc:permits
           rdf:resource="http://creativecommons.org/ns#Reproduction" />
        <cc:permits
           rdf:resource="http://creativecommons.org/ns#Distribution" />
        <cc:requires
           rdf:resource="http://creativecommons.org/ns#Notice" />
        <cc:requires
           rdf:resource="http://creativecommons.org/ns#Attribution" />
        <cc:permits
           rdf:resource="http://creativecommons.org/ns#DerivativeWorks" />
        <cc:requires
           rdf:resource="http://creativecommons.org/ns#ShareAlike" />
      </cc:License>
    </rdf:RDF>
  </metadata>
</svg>
